<?xml version="1.0" encoding="utf-8"?>
<!-- Generator: Adobe Illustrator 24.3.0, SVG Export Plug-In . SVG Version: 6.00 Build 0)  -->
<svg version="1.1" id="Слой_1" xmlns="http://www.w3.org/2000/svg" xmlns:xlink="http://www.w3.org/1999/xlink" x="0px" y="0px"
	 viewBox="0 0 1920 1080" style="enable-background:new 0 0 1920 1080;" xml:space="preserve">
<style type="text/css">
	.st0{clip-path:url(#SVGID_1_);}
	.st1{fill:#C9C38D;}
	.st2{clip-path:url(#SVGID_1_);fill:#C9C38D;}
	.st3{fill:#88875F;}
	.st4{fill:#3F3827;}
	.st5{fill:#868041;stroke:#52381E;stroke-width:3.5579;stroke-miterlimit:10;}
	.st6{fill:#DBBE9E;stroke:#52381E;stroke-width:3.5579;stroke-miterlimit:10;}
	.st7{fill:#EF9451;stroke:#52381E;stroke-width:3.5579;stroke-miterlimit:10;}
	.st8{fill:#52381E;stroke:#52381E;stroke-width:1.186;stroke-miterlimit:10;}
	.st9{fill:#52381E;}
	.st10{fill:#F7C99E;stroke:#000000;stroke-width:3.5579;stroke-miterlimit:10;}
</style>
<g>
	<defs>
		<rect id="SVGID_9_" x="0.3" y="220.8" width="1919.3" height="859.2"/>
	</defs>
	<clipPath id="SVGID_1_">
		<use xlink:href="#SVGID_9_"  style="overflow:visible;"/>
	</clipPath>
	<g id="earth3" class="st0">
		<g>
			<path class="st1" d="M2287.1,830.6l-26.6-189.9c0,0-173.1,18.2-283.7-6.5c6.6-0.2,13.1-0.1,19.7-0.4c1.9-0.1,4.2-0.3,5.3-1.3
				c0.9-0.9,0.7-2,0.4-3c-1.3-4.5-2.6-8.9-3.9-13.4c-3.5,3.2-8.4,6.3-14.5,6.8c-6.1,0.5-12.4-3.1-10.1-6.7
				c-4.2,2.4-8.9,4.9-14.4,5.3c-5.5,0.4-11.5-2.7-9.5-6c-6.9,2-13.7,4-20.6,6c-1.6,0.5-3.4,1-5.2,0.9c-1.6-0.1-2.9-0.7-4.4-1
				c-4.9-1-10.3,0.9-15.5,1.5c-5.2,0.6-12-1.8-9.7-4.8c-5.9-0.8-11.8,1.6-17.6,2.9c-5.8,1.3-14.1,0.8-15.1-2.9
				c-5.5,0.8-8.6,4.3-12.7,6.8c-4.1,2.5-12.5,3.2-13.6-0.1c-5.4,2.2-10.7,4.4-16.1,6.7c-1.8-2.7-3.6-5.4-5.4-8.1
				c-4.9,1.9-9.4,4.3-13.3,7c-2.2-1.8-3.6-4-4-6.4c-6.8,2.4-13.3,5.3-19.3,8.5c-0.5-1.3-1-2.6-1.5-4c-4.3,2.6-8.9,4.9-13.9,6.9
				c-0.4-2.5-0.8-5.1-1.3-7.6c-5.6,3.6-14.7,5-21.9,3.4c-4.1,1.8-8.2,3.7-12.3,5.5c-1.7-2.5-2.6-5.3-2.7-8.1
				c-3.8,3.3-8.1,6.4-12.9,9.2c-1.1-1.6-2.2-3.1-3.4-4.7c-3.7,2.1-10.3,4.1-12.5,1.5c-5.6,1.2-11.2,2.4-16.8,3.6
				c-0.7-0.8-1.4-1.6-2-2.4c-7.7,3.7-16.9,6.2-26.4,7.1c0.8-1.4-1.8-2.7-4.2-2.5c-1.9,0.1-3.6,0.8-5.1,1.6c0.2-0.4,0-1-0.6-1.3
				c-1.2-0.4-2.7-0.1-4,0.3c-8.2,2.1-16.4,4.2-24.7,6.4c-3.3,0.8-8.7,0.7-8-1.4c-8.6,1.1-16.3,5.3-19.2,10.5
				c-2.8-0.4-5.3-1.4-6.9-2.9c-1.2,1.7-3.2,3.2-5.6,4.3c-1-1.2-1.3-2.7-1-4.1c-5.2,1.5-9.9,3.7-13.8,6.3c-0.6-1.2-1.3-2.3-1.9-3.5
				c-1.6,1-3.2,2.1-4.8,3.1c-2.7,0.5-5.5,1-8.2,1.5c-3.1,2.3-5.7,5-7.5,7.7c-9.1,1.2-18.1,2.5-27.1,3.7c0-0.3-0.1-0.6-0.2-0.9
				c-3.9,1.2-8,1.8-12.1,1.8c0.9-1.6,0.8-3.4-0.4-4.8c-4.1,2.1-11.5,3.3-11.8-0.2c-0.1-0.8,0.4-1.7,0.1-2.5c-0.6-1.7-3.6-1.8-6-1.9
				c-2.4-0.1-5.3-1.4-4.2-3c-8.2,0.4-16.4,0.9-24.7,1.3c1.3-2.1-2.8-3.5-5.8-3c-3,0.4-6.6,1.4-8.6-0.1c-1.5-1.1-1.2-3-1.6-4.6
				c-0.4-1.6-2.7-3.1-4.6-2.1c-14.5,5.5-28.2,12.2-40.9,19.8c-0.2-1.9-0.4-3.8-0.6-5.7c-0.7,1.5-1.6,3.1-3.5,3.9
				c-1.9,0.8-4.8-0.1-4.3-1.7c-7.6,6.4-15.8,12.6-24.3,18.4c-2.9,2-8.6,3.6-9.6,0.9c-2,1.9-4.3,3.9-7.5,4.5
				c-3.1,0.6-6.9-1.3-5.9-3.5c-2.4,2.4-5,4.7-7.6,6.9c0.7-1.4,0.9-2.9,0.5-4.3c-3.9,1.2-8,1.8-12.1,1.8c0.9-1.6,0.8-3.4-0.4-4.8
				c-4.1,2.1-11.5,3.3-11.8-0.2c-0.1-0.8,0.4-1.7,0.1-2.5c-0.6-1.7-3.6-1.8-6-1.9c-2.4-0.1-5.3-1.4-4.2-3
				c-8.2,0.4-16.4,0.9-24.7,1.3c1.3-2.1-2.8-3.5-5.8-3c-3,0.4-6.6,1.4-8.6-0.1c-1.5-1.1-1.2-3-1.6-4.6c-0.4-1.6-2.7-3.1-4.6-2.1
				c-14.5,5.5-28.2,12.2-40.9,19.8c-0.2-1.9-0.4-3.8-0.6-5.7c-0.7,1.5-1.6,3.1-3.5,3.9c-1.9,0.8-4.8-0.1-4.3-1.7
				c-7.6,6.4-15.8,12.6-24.3,18.4c-2.9,2-8.6,3.6-9.6,0.9c-2,1.9-4.3,3.9-7.5,4.5c-3.1,0.6-6.9-1.3-5.9-3.5c-2.4,2.4-5,4.8-7.7,7
				c-2.2,0.4-4.4,0.9-6.7,1.3c0-0.8,0.1-1.5,0.1-2.3c-0.3,0.8-0.7,1.7-1.1,2.5c-0.2,0-0.4,0.1-0.5,0.1c-6,0-10.6-0.2-13.4-0.8
				c-6.1-1.3-12.9-1.5-20.2-0.8c-2.4-1.6-4.1-3.6-4.5-6.2c-4.9,3.9-10.5,7.4-16.5,10.2c-8.1,2.1-16.7,4.9-25.8,8.2
				c-2.9,0.7-5.8,1.5-8.5,2.6c-1.6,0.6-3.1,1.4-4.6,2.2c-5.7,2.2-11.6,4.4-17.6,6.8c-14.2,1.9-31.2-2.2-39,6.7
				c-1.4,1.6-2.3,3.5-3.5,5.2c-1.3-1.3-2.3-2.8-2.8-4.4c-6,2.9-11.7,6.2-16.8,9.8c-0.7-1.3-1.3-2.5-2-3.8c-3.6,2.9-7.6,5.5-12,7.9
				c-0.8-2.5-1.5-4.9-2.3-7.4c-4.7,4-13,6-19.9,5c-3.6,2.1-7.1,4.2-10.7,6.3c-1.9-2.4-3.2-5-3.6-7.7c-3.1,3.6-6.7,6.9-10.8,10
				c-1.3-1.5-2.5-2.9-3.8-4.4c-3.1,2.4-9,4.8-11.5,2.5c-5.1,1.6-10.1,3.2-15.2,4.8c-0.7-0.7-1.5-1.5-2.2-2.2
				c-6.7,4.2-14.9,7.3-23.6,9c0.5-1.5-2-2.5-4.2-2.2c-1.8,0.3-3.2,1.1-4.6,2c0.1-0.5-0.1-1-0.8-1.2c-1.1-0.3-2.5,0.1-3.7,0.6
				c-7.4,2.7-14.7,5.4-22.1,8.1c-2.9,1.1-8,1.4-7.7-0.8c-5.7,1.3-10.7,4.1-13.8,7.6c-0.3-0.2-0.5-0.4-0.8-0.6
				c-2.4,1.1-4.7,2.3-6.9,3.5c-0.6-0.3-1.1-0.6-1.6-1c-0.4,0.9-1,1.7-1.8,2.5c-1.3,0.3-2.6,0.6-3.8,0.9c-0.4-0.8-0.6-1.7-0.6-2.6
				c-3.9,1.6-7.5,3.6-10.4,6c-0.7,0.2-1.3,0.5-1.9,0.8c-0.6-0.9-1.3-1.9-1.9-2.8c-1.4,1.1-2.7,2.3-4.1,3.4c-2.5,0.7-5,1.4-7.5,2.1
				c-1.9,1.9-3.5,3.9-4.8,6c-7.4,4.6-12.1,11.7-12.1,18.6c-1.2,1.3-2.5,2.6-4,3.9c-0.8,0-1.6,0-2.3-0.1c-3.4,1.9-6.9,3.8-10.3,5.6
				c-1.1-2-2.2-3.9-3.3-5.9c-3,3.9-7.7,8-14.3,9.3c-6.6,1.3-14.5-1.6-12.9-5.8c-4.1,3.2-8.6,6.5-14.6,7.7c-6,1.2-13.4-1.3-12-5.1
				c-7.1,3.1-14.1,6.2-21.2,9.3c-1.7,0.7-3.5,1.5-5.5,1.7c-1.8,0.1-3.4-0.3-5.1-0.4c-5.6-0.4-11.1,2.4-16.7,3.7
				c-5.6,1.3-13.7-0.3-11.9-3.9c-6.7,0-12.6,3.3-18.8,5.6c-6.1,2.2-15.4,2.8-17.4-1c-5.8,1.6-8.4,5.8-12.3,9c-0.6,0.5-1.2,0.9-2,1.3
				c-3.8,0.5-7.7,1.1-11.5,1.7c-0.6-0.3-1.1-0.7-1.5-1.2c-1.1,0.7-2.3,1.3-3.4,2c-5.8,0.9-11.5,1.8-17.3,2.8
				c-1.1-1.1-2.3-2.2-3.4-3.4c-3,1.7-5.7,3.5-8.2,5.4c-2.7,0.5-5.3,1-7.9,1.5c-1.2-1.2-2.1-2.4-2.7-3.8c-4,2-7.8,4.2-11.4,6.5
				c-3.3,0.7-6.6,1.3-9.9,2c-0.2-0.3-0.3-0.5-0.5-0.8c-0.5,0.4-1,0.8-1.5,1.2c-4.8,1-9.6,2-14.3,3c-0.4-0.9-0.8-1.9-1.2-2.8
				c-2.6,2.3-6.3,4.1-10.4,5.3c-1.5,0.3-2.9,0.6-4.4,1c-2.9,0.5-5.8,0.6-8.6,0.4c-1.4,0.8-2.7,1.7-4.1,2.5
				c-3.5,0.8-6.9,1.6-10.4,2.4c-1.3-1.8-2.2-3.7-2.8-5.7c-2.3,2.8-5,5.6-8,8.3c-2,0.5-4,1-6,1.5c-1-0.9-1.9-1.8-2.9-2.7
				c-3.5,2.8-10.3,5.9-13.5,3.4c-5.9,2.1-11.8,4.1-17.6,6.2c-1-0.8-1.9-1.5-2.9-2.3c-7.6,5-17.1,8.9-27.3,11.2
				c0.5-1.6-2.7-2.6-5.2-2.2c-2.1,0.4-3.8,1.4-5.3,2.4c0.1-0.5-0.2-1.1-1-1.3c-1.4-0.3-3,0.3-4.3,0.8c-8.5,3.4-17.1,6.8-25.6,10.2
				c-3.4,1.4-9.4,2-9.2-0.4c-8.2,2.1-15,6.7-17.7,11.9c-1.6,0.5-3.2,1-4.8,1.5c-1.6-0.4-3.1-0.9-4.3-1.7c-0.6,1.5-1.8,2.9-3.3,4.1
				c-0.8,0.3-1.6,0.5-2.3,0.8c-1-1.1-1.6-2.4-1.6-3.7c-5.3,2.3-10,5.3-13.6,8.6c-1-1.2-2-2.3-3-3.5c-1.5,1.3-3,2.7-4.6,4
				c-2.9,0.9-5.8,1.8-8.7,2.7c-2.1,2.1-3.8,4.4-5.1,6.7c-9.4,6.9-11,13.9-16,19.1c-4.5,2-9.1,2.1-13.6,5.1c-1.5-0.1-3,1.1-4.5,2.2
				c-1.1,0.1-2.4,0.3-3.6,0.4c0.4-2.3-0.5-4.5-2.4-6.2c-2.3,2.6-5.2,4.8-8.6,6.5c-0.5,0-0.9,0-1.4,0c-0.3,0-0.6,0-0.8,0
				c-0.3-1.6-1.2-3.1-2.7-4.2c-1.7,1.6-3.7,3-5.9,4.2c-1.5,0-3,0.1-4.4,0.1c-0.7-0.9-1.7-1.7-3-2.1c-0.5,0.8-1.3,1.6-2.1,2.4
				c-3.4,0.2-6.6,0.5-9.4,0.9c-0.2-0.3-0.5-0.7-0.8-0.9c-1.7-1.2-4.5-0.1-6.7,0.8c-2.2,0.8-5.8,0.9-5.9-0.9
				c-6.8,3.4-13.7,6.7-20.5,10.1c-0.3,0.1-0.5,0.1-0.8,0.2c-0.5-2-5-1.6-7.3-0.1c-0.8,0.5-1.6,1-2.4,1.6c-1.6,0.1-3.2,0.1-5,0.1
				c-1,0-2,0.1-3,0.2c-0.7-0.6-1.3-1.2-2-1.8c-1.5-1.1-4.7-1.5-5.6,0c-2.5,2.7-4.9,5.5-7.2,8.4c-7.1,5.3-13.5,13.1-18.6,20.6
				c-0.6-0.5-1.1-1.1-1.7-1.6c0.4,1.5,0.7,3.2-0.5,4.5c-1.1,1.4-4.4,1.7-5,0.3c-2.1,7.1-4.7,14.2-7.7,21.3c-1.7,1.7-4.5,4.4-8.1,7.8
				c-0.4-0.1-0.8-0.2-1.2-0.4c-0.2,0.7-0.3,1.4-0.5,2.1c-1.7,1.7-3.6,3.5-5.7,5.5c-2.2,0.4-4.6-0.1-5.1-1.7
				c-0.5,2.8-1.1,5.6-1.9,8.3c-1.5,1.5-3.1,3-4.7,4.5c-0.6-0.8-1.3-1.6-1.9-2.4c0.4,1.1,0.7,2.2,0.9,3.4
				c-7.1,6.7-14.8,13.9-22.4,20.7c-1.7-2.2-3.4-4.4-5.1-6.6c-1.2,4.8-2.5,9.6-3.7,14.5c-1.3,1.1-2.5,2.2-3.7,3.3
				c-0.9-0.6-2-1.2-3.2-1.5c-0.6,2.2-0.4,3.5-0.8,4.9c-1.2,1-2.3,2-3.4,2.9c-2.7-0.3-6.9,0.5-9.2,0.2c0.1,1.1,2.8,1.8,5.9,2.5
				c-2,1.6-3.9,3.2-5.7,4.6l14.3-1.7c0.1,0.1,0.1,0.2,0.1,0.3l0.6-0.4l10.6-1.3c0.3,0.7,0.5,1.4,0.8,2.1c0.8-0.9,1.7-1.7,2.8-2.5
				l20.9-2.5c1.3,1.1,1.8,2.4,1,3.8c3.1-2,6.5-4.1,10.5-5.2l6.3-0.8c4.6,0.4,8.7,2.8,7.3,5.6c6.7-2.3,13.4-4.6,20.2-6.9
				c1.6-0.6,3.3-1.1,5.1-1.1c1.6,0,3,0.5,4.5,0.7c5,0.8,10.2-1.4,15.4-2.2c5.2-0.8,12.2,1.3,10.1,4.4c6,0.5,11.7-2.1,17.5-3.7
				c5.8-1.6,14.1-1.5,15.4,2.1c5.4-1,8.3-4.7,12.2-7.3c3.9-2.6,12.3-3.8,13.6-0.5c5.2-2.5,10.4-4.9,15.6-7.4c2,2.6,4.1,5.2,6.1,7.8
				c4.8-2.1,9.1-4.7,12.7-7.5c2.3,1.7,3.9,3.9,4.5,6.1c6.6-2.7,12.9-5.8,18.6-9.3c0.6,1.3,1.2,2.6,1.9,3.9c4.1-2.8,8.5-5.3,13.4-7.5
				c0.6,2.5,1.3,5,1.9,7.5c5.3-3.8,14.3-5.6,21.7-4.4c4-2,7.9-4,11.9-6c1.9,2.4,3.1,5.1,3.4,7.9c3.5-3.5,7.6-6.7,12.2-9.7
				c1.3,1.5,2.5,3,3.8,4.5c3.5-2.3,10-4.6,12.4-2.1c5.5-1.5,11-2.9,16.5-4.4c0.8,0.8,1.5,1.5,2.3,2.3c7.5-4,16.5-6.9,25.8-8.2
				c-0.6,1.4,2,2.6,4.4,2.3c1.9-0.2,3.5-1,5-1.8c-0.2,0.5,0.1,1,0.8,1.2c1.2,0.3,2.7-0.1,4-0.4c6.7-2,13.3-4.1,20-6.1
				c0.6,0.8,0.7,1.7,0.2,2.6c3.9-1.3,7.8-2.7,11.7-4c0.4,0.3,0.6,0.6,0.5,1.1c3.6-0.6,7-1.8,9.9-3.3l8.2-1c3.3,0.4,6.8-0.4,10.2-1.2
				l8.8-1.1c4,0.4,7.6,2.1,6.1,4.5c6,0.5,11.7-2.1,17.5-3.7c5.8-1.6,14.1-1.5,15.4,2.1c5.4-1,8.3-4.7,12.2-7.3
				c3.9-2.6,12.3-3.8,13.6-0.5c2.7-1.3,5.5-2.6,8.2-3.9l9.2-1.1c1.4,1.8,2.8,3.6,4.3,5.4c4.7-2.1,9-4.7,12.6-7.5l0.2,0
				c2.3,1.7,3.9,3.8,4.5,6.1c6.3-2.6,12.2-5.5,17.7-8.8l1.1-0.1c0.6,1.2,1.1,2.3,1.7,3.5c2.4-1.6,4.9-3.2,7.6-4.6l6.4-0.8
				c0.5,1.8,0.9,3.6,1.4,5.3c5.3-3.8,14.3-5.6,21.7-4.4c3.3-1.7,6.5-3.3,9.8-5l2.6-0.3c1.6,2.2,2.6,4.7,2.9,7.1
				c3.2-3.1,6.9-6.1,10.9-8.8l1.8-0.2c1.1,1.3,2.1,2.6,3.2,3.9c3.5-2.3,10-4.6,12.4-2.1c5.5-1.5,11-2.9,16.5-4.4
				c0.8,0.8,1.5,1.5,2.3,2.3c4.1-2.2,8.7-4,13.5-5.5l12.6-1.5c0.7,0.8,2.5,1.3,4.1,1.1c1.9-0.2,3.5-1,5-1.8c-0.2,0.5,0.1,1,0.8,1.2
				c1.2,0.3,2.7-0.1,4-0.4c3.1-1,6.2-1.9,9.3-2.9l777.8-94.3c0.1,0.5,0,1-0.4,1.6c1.6-0.7,3.2-1.4,4.9-2.1l22.7-2.8
				c3.3,0.9,5.3,2.4,4.1,4.1c8.8-2.2,17.6-4.4,26.4-6.5c2.1-0.5,4.4-1.1,6.7-1.1c2.1,0,4,0.4,6,0.6c6.6,0.6,13.4-1.4,20.3-2.2
				c6.8-0.8,16.1,0.9,13.4,3.7c7.9,0.4,15.4-2.1,22.9-3.6c7.6-1.5,18.5-1.5,20.3,1.7c7.1-1,10.9-4.4,15.9-6.8
				c5.1-2.4,16.1-3.6,17.9-0.7c6.8-2.3,13.6-4.6,20.4-6.9c2.7,2.3,5.5,4.6,8.2,6.9c6.2-2,11.9-4.4,16.6-7c3.1,1.5,5.2,3.4,6.1,5.4
				c8.7-2.6,16.9-5.5,24.4-8.7c0.8,1.1,1.7,2.3,2.5,3.4c5.3-2.6,11.2-4.9,17.5-7c0.9,2.2,1.8,4.5,2.6,6.7c7-3.5,18.7-5.3,28.5-4.3
				c5.2-1.9,10.4-3.7,15.5-5.6c2.6,2.1,4.1,4.5,4.6,7c4.6-3.2,10-6.2,15.9-8.9c1.7,1.3,3.3,2.7,5,4c4.6-2.1,13.1-4.3,16.4-2.1
				c7.2-1.4,14.5-2.8,21.7-4.2c1,0.7,2,1.3,3,2c9.8-3.7,21.6-6.5,33.9-7.8c-0.8,1.3,2.7,2.3,5.8,2c2.5-0.2,4.6-0.9,6.6-1.7
				c-0.2,0.4,0.1,0.9,1,1.1c1.6,0.3,3.5-0.1,5.2-0.5c10.6-2.4,21.2-4.7,31.8-7.1c4.2-0.9,11.4-1.1,10.7,0.8
				c11.2-1.5,20.9-5.7,24-10.4c3.7,0.2,7.1,1,9.4,2.1c1.4-1.6,3.8-3,6.8-4.2c1.4,1.1,2.1,2.3,1.9,3.6c6.6-1.6,12.6-3.8,17.4-6.4
				c1,1,2,2,2.9,3c2-1,4-2,6-3c3.6-0.6,7.1-1.2,10.7-1.8c3-1.8,5.5-3.7,7.5-5.7L2287.1,830.6z M191.9,970c-1.8,1.7-4,3.3-7.1,4.5
				L191.9,970z"/>
		</g>
	</g>
	 
		<rect id="earth2" x="-56.1" y="882.8" transform="matrix(0.9819 -0.1893 0.1893 0.9819 -193.2369 204.4991)" class="st2" width="2060.5" height="462.4"/>
	<g id="earth1" class="st0">
		<path class="st3" d="M2067.1,967.1c0.1-0.2,0.3-0.4,0.4-0.6c-0.3-0.2-0.5-0.4-0.8-0.6c-0.3-0.9-0.7-1.8-1-2.6
			c-0.1-1.5-0.3-3-0.5-4.5l-1.7-1.2c-1.9-4.9-3.8-9.9-5.7-14.7c0.3-0.5,0.6-0.9,0.9-1.5c-0.8-0.6-1.5-1.3-2.2-2
			c-2.7-6.8-5.2-13.3-7.5-19c0.5-1.1,0.9-2.3,1.1-3.7c-1.1-0.5-2.3-1.3-3.4-2.1c-4.1-10.4-6.9-17.2-6.9-17.2s-0.2-0.3-0.5-0.7
			c0.9-0.9,1.9-1.6,2.5-2.9c1.5-3.5-1.4-8.6-3.7-12.6c-2.3-4-3.6-10.7-0.5-11.5c-8.7-12.5-17.4-24.9-26-37.4c3.8-1.2,1.5-9.9-2-14
			c-3.5-4.1-8.3-8.3-8.4-13.9c-0.1-4.2,2.5-6.6,4-9.8c1.5-3.1,1.2-9.3-1.9-10.6c-21.1-14.4-42.9-26-64.9-34.3
			c2.1-3.3,4.2-6.6,6.3-9.9c-2.6,1.1-5.4,2.2-8.3,0.5c-2.8-1.8-4.6-7.9-2.2-9.4c-10.1-1.4-20.2-3.3-30.3-5.7
			c-0.1-0.4-0.2-0.9-0.3-1.3c-1,0.3-2,0.4-3.1,0.5c-4.3-1.1-8.6-2.2-13-3.5c-1.7-0.5-3.6-1.5-5.4-2.8c0.2-5.3-0.9-11.7-3.3-17.2
			c-3.9,3.2-10.1,4.2-15,1.3c-3.8-4.1-5.2-12.9-1.4-14.8c-2,0-4-0.1-5.9-0.2c-0.1-2.3-0.1-4.6-0.7-7c-1.9-7.5-7.7-10.5-12.2-12.9
			c-4.5-2.4-10.6-10.2-9.3-16.1c-13.9-4.5-27.7-9.1-41.6-13.6c2.5-2.9,5-5.8,7.5-8.6c-4.4-0.5-8.8-0.9-13.2-1.4
			c-2.6-4.6-7.1-8.3-10.4-8.7c-3.2-0.4-6.7-0.2-9.9-1.6c0.3-1.2,0.6-2.5,0.7-3.9c-2.2-0.2-4-0.1-5.5,0c-0.5-0.6-0.9-1.2-1.4-2
			c-3.3-5.9-3.7-13.5-5.2-20.4c-1.5-6.9-6.6-15.4-9.5-12.6c-24.4,11.2-46.9,27.7-66.9,49.2c-1.3-8.1-2.6-16.2-3.9-24.3
			c-0.7,5.6-1.6,11.6-4.7,13.3c-3.1,1.7-9-4.5-8.8-10.4c-11.2,20.6-23.4,39.7-36.6,56.9c-4.5,5.9-14.3,8-17.5-4
			c-2.9,6.3-6.2,12.9-11.7,12.9c-5.5,0-13.4-10.9-12.6-19.6c-6.1,14.8-13.2,28.2-21.2,40c-0.8-8.7-1.6-17.5-2.4-26.2
			c-0.9,17.2-5.2,32-12.1,42.1c-0.2,0-0.4,0-0.6-0.1c-2.7-7.9-4.1-16.4-4-23.8c-4.1,10.2-10.4,17.3-18,20.8
			c-8-1.1-15.5-2.2-22.5-3.1c-1.2-13.4-2.4-26.7-3.7-40.1c-3.9,7.7-7.7,15.3-11.6,23c-7.5-16.2-15-32.5-22.4-48.7
			c0.1,16-2.2,32.2-10.3,37.1c-8.1,5-22.8-8-25.1-25c-2.4,12.7-5.1,26.2-12.6,30.5c-7.4,4.3-20.9-6.7-23.1-22.3
			c-6.8,12.2-13.6,24.3-20.4,36.5c-1.6,2.9-3.4,5.9-6.1,6.3c-2.4,0.3-5.3-1.5-7.9-2.2c-8.6-2.1-13.4,8.8-20.1,13.8
			c-6.7,5-20.2-2.5-21.6-17c-9.7-0.8-14.6,12.6-21,21.2c-6.4,8.7-19.1,10.2-26.4-5.7c-6.7,5.9-5.7,23.3-7.8,36.2
			c-2.1,12.9-13.1,20.2-19.8,5.9c-4.3,12.4-8.5,24.8-12.8,37.3c-6.8-11.2-13.7-22.3-20.5-33.5c-4.1,10.9-6.9,23.5-8.2,37.4
			c-6-7.2-11.5-16.4-15.7-26.5c-6.1,14-11,29.7-14.6,46.8c-2.8-5.6-5.6-11.3-8.4-16.9c-2.1,13.6-5.2,26.1-9.3,37.5
			c-4.6-11.1-9.2-22.2-13.8-33.3c-2.5,18.8-13.4,29.2-26.4,25.3c-3.1,10.1-6.1,20.1-9.2,30.2c-6.4-10.4-12-22.2-16.5-34.6
			c-0.3,16.5-1.8,32.3-4.4,46.9c-4.1-6.5-8.2-12.9-12.2-19.4c-2,11.3-8.4,23.2-15.7,12.7c-6.2,8-12.4,16-18.6,24.1
			c-2.2-3.2-4.5-6.5-6.7-9.7c-5.4,20-14.9,35.4-27,44c-1.1-6.7-6.8-11.2-10-9.4c-2.6,1.4-3.9,5.4-4.9,9.6c-0.4-2.1-1.6-4.6-2.9-5.3
			c-2.3-1.2-4,1-5.3,3.1c-8.6,13.3-17.2,26.6-25.7,39.9c-3.4,5.3-11.5,7.3-13.8-2.5c-6.9,5.7-11.3,17.1-12.4,31
			c-2.9,1.9-5.7,3.9-8.4,5.8c-1.8-4.2-4.3-8-7.1-10.8c-2.8,11.9-12.8,23.2-19.8,9.7c-1.6-3.2-2.5-7-4.4-9.9c-4-6.2-9.3-3.8-13.4-2.1
			c-4.1,1.7-11.3-0.8-12.5-8.2c-12.7,9-25.5,17.9-38.2,26.9c-1.7-9.3-11-11.2-15.1-6.8c-4.1,4.4-8.2,11.4-14.4,7.3
			c-4.5-3.1-7.5-10.7-11.1-16.5c-3.6-5.9-10.3-10-11.4-4.3c-13.7,34.5-24.1,72.8-30.9,114.1c-3.8-7.3-7.6-14.5-11.5-21.8
			c1.5,6.5,3,13.6,1.3,18.4c-1.7,4.7-8.1,3.7-10.1-2.7c-0.7,32.1-2.8,63.4-6.2,93.8c-1.2,10.5-7.5,21.7-14.1,12.2
			c0.2,9.3,0.1,19.3-3.9,24.5c-4,5.1-13.6,1.1-16.1-8.7c0.9,21.2,0.5,41.9-1.1,61.8c-3.7-8.4-7.4-16.8-11.1-25.2
			c5.6,19.3,7.8,39,6.2,56.3c-4.9-5.8-9.1-13.6-11.8-21.8c1.2,27.3-6.9,50.3-21.3,60.2c-6.2-14.1-12.4-28.2-18.6-42.4
			c-0.1,26.6-0.3,53.3-0.4,79.9c-2.9-8.3-7.8-15.9-13.2-20.6c-0.1,14.4,2.8,21-1.2,32.1c-5.3-6.5-16.1-5.2-22-9.1
			c1.8,10.5,30.9,24.3,32.8,34.8c1.1,16,36,35.2,79.9,52.1c0.5,0.8,1.1,1.6,1.8,2.4c4.3-0.7,14.2,2.9,17.5,9.8
			c0.8,1.6,0.8,2.9,1.8,4.6c2.2,3.6,6.8,6.3,10.4,8.4c3.6,2.1,9,6.9,8.7,9.1c11.7,5.8,23.5,11.5,35.2,17.3c-0.2,2.9,6.9,8.8,11,10.4
			c4.1,1.6,8.5,2.6,12.8,7.1c3.1,3.3,4.2,6.6,6.1,10c1.9,3.3,6.6,8.2,8.4,7.7c16.8,1.1,31.6-0.5,44.1-4.8c1.8,3.8,3.7,7.5,5.5,11.3
			c-0.1-2.2-0.1-4.6,2-4.5c2.1,0,7.1,4.1,7.6,6.6c6-6.1,13-11.2,20.8-15.4c2.7-1.4,9.7,0,13.3,5.9c1.5-2,3.2-4,7.3-2.6
			c4.1,1.4,11.1,7.9,11.5,11.4c2.9-4.8,6.7-8.8,11.4-11.9c1.5,3.9,3.1,7.8,4.6,11.7c-1.2-7.2,0.4-12.5,4.6-15.1
			c3,4.1,5,8.2,5.7,11.4c3.7-6.3,14.1-6.1,27.3,0.5c2.6,6.6,5.2,13.1,7.8,19.7c3.8-4.4,7.6-8.7,11.4-13.1c1.5,0.6,3,1.1,4.4,1.6
			c1.3,2.4,3,5.1,5.2,7.6c1.9-2.1,1.7-4.4,3.5-5.3c1.3,0.2,2.5,0.4,3.7,0.5c3.6,4.4,11.5,10,15.3,13.9c0.2-1.6-5.2-7.7-10.5-13.6
			c0-0.1,0-0.2,0-0.3c0.7,0,1.4-0.1,2-0.1c4.7-0.7,16.2-6,32.5-14.7c0.2,0.8,0.3,1.5,0.4,2.3c0.2-0.9,0.3-1.9,0.5-2.8
			c9-4.8,19.5-10.7,31.1-17.4c1.8,3.2,3.2,6.9,3.8,10.9c3.4-6.3,6.7-12.6,10.1-19c17.6-10.3,37.3-22.1,58.3-34.9
			c3.4,3.1,6.1,7.9,6.8,13.9c9.7,0.5,14.4-13.1,20.6-22c6.2-8.9,18.9-10.9,26.2,4.9c6.2-5.8,5.5-21.5,7-34.2
			c6.1-3.8,12.3-7.7,18.5-11.6c0.5,0.7,0.9,1.6,1.4,2.5c0.5-1.4,0.9-2.8,1.4-4.2c7.7-4.8,15.3-9.6,23-14.5c2.9,4.6,5.8,9.3,8.7,13.9
			c2.5-7,4.4-14.8,5.8-23c2.9-1.9,5.9-3.7,8.8-5.6c3.4,5.2,6.5,10.8,9.1,17c3.7-9,6.8-18.6,9.6-28.8c3.5-2.2,7.1-4.5,10.6-6.7
			c0.8,1.6,1.6,3.2,2.4,4.8c0.3-2.4,0.7-4.7,1.1-7c5.5-3.5,10.9-7,16.3-10.4c1.8,4.2,3.6,8.4,5.4,12.7c1.2-10.2,4.9-18.1,10.1-22.6
			c1.6-1,3.1-2,4.7-3c3.4-1.5,7.1-1.7,11.1-0.7c0.8-2.7,1.5-5.3,2.3-8c4.8-3.1,9.5-6.1,14.1-9.1c3.4,6.6,6.5,13.6,9.2,20.8
			c0.1-9.5,0.6-18.8,1.4-27.7c3.6-2.3,7.2-4.7,10.6-6.9c1.4,2.2,2.8,4.3,4.2,6.5c0.7-4.1,1.9-8.3,3.6-11.5c2.7-1.8,5.4-3.5,8-5.3
			c1.2,0.5,2.5,1.6,3.9,3.5c2.9-3.9,5.8-7.9,8.7-11.8c4.4-2.9,8.6-5.7,12.7-8.4c1.2,1.7,2.4,3.4,3.6,5.1c0.8-3.3,1.8-6.3,2.8-9.4
			c25.2-16.8,42.9-29.1,49.3-34.2c0.4-0.3,0.8-0.6,1.2-1c2.9,2.9,5,6.8,5.2,11.2c8-8.7,16-17.4,24.1-26.1c1.9-2.1,4-4.3,6.7-4.5
			c2.5-0.3,5.1,1.1,7.6,1.5c8.3,1.5,14.3-6.3,21.4-9.9c7.1-3.6,19.8,1.8,19.7,12.2c9.6,0.5,15.8-9,23.1-15.2
			c7.2-6.2,20.1-7.4,25.6,4c7.3-4.3,8.1-16.7,11.5-25.9c3.4-9.2,15.1-14.5,20.3-4.3c5.5-8.9,11.1-17.8,16.6-26.7
			c5.6,8,11.3,16,16.9,24c5.2-7.8,9.3-16.9,12.1-26.8c5.2,5.1,9.7,11.7,12.9,18.9c7.5-10.1,14-21.3,19.4-33.5
			c2.2,4,4.4,8.1,6.6,12.1c3.5-9.7,7.9-18.7,13.1-26.8c3.4,7.9,6.8,15.9,10.2,23.8c4.4-13.4,16.3-20.9,28.8-18.1
			c4.1-7.2,8.2-14.4,12.3-21.6c5.3,7.5,9.6,15.9,12.8,24.8c2-11.8,5.1-23.1,9.3-33.6c3.4,4.6,6.7,9.3,10.1,13.9
			c3.2-8.1,10.8-16.6,17-9.1c6-4.9,11.9-9.8,17.9-14.7c2,0.4,3.9,0.7,5.9,0.9c1,1.2,1.9,2.4,2.9,3.6c0.6-1.1,1.3-2.2,1.9-3.3
			c31.9,0.3,58.6-26.1,76.4-49.8c1.9-1.8,3.8-3.6,5.7-5.4c3.9-3.8,12.1-5.2,13.4,1.8c11.6-6.4,18.4-22.3,17.1-39.7
			c0.2,0,0.3-0.1,0.5-0.1c4.4,0.5,9,2.8,12.8,6.7c0-3.4,0.4-6.7,1.2-9.7c1.8-0.3,3.7-0.5,5.6-0.8c1.2,2.4,2.2,4.9,2.8,7.6
			c2.4-2.6,4.4-5.5,6.4-8.6c22.7-2.2,46.3-2.5,47.9-5.6C2084.1,1014,2076.4,991.7,2067.1,967.1z M887.9,1507.8
			c7.1,1.7,14.9,5,23.3,9L887.9,1507.8z"/>
	</g>
	<g id="grass" class="st0">
		<g id="grass6">
			<g>
				<path class="st4" d="M1370,913.6c-0.7-2.9-1.9-5.6-3.4-8c-1.5-2.4-3.4-4.6-5.5-6.6c-2-2-4.2-3.8-6.5-5.5c-2.3-1.7-4.7-3.3-7.2-5
					c-4.9-3.4-10-7-14.3-11.8c-2.2-2.4-4.1-5.2-5.6-8.2c-1.5-3-2.5-6.1-3.3-9.1c-0.8-3-1.4-6-2-8.8c-0.6-2.9-1.2-5.6-2.1-8.1
					c-0.8-2.6-2-4.9-3.3-7c-1.5-2.1-3.3-4.1-5.4-6c-2.1-1.9-4.4-3.9-6.6-5.9c-2.2-2-4.4-4-6.6-6c-2.2-2-4.4-4.1-6.5-6.2
					c-2.1-2.1-4.3-4.2-6.3-6.4c2.6,1.5,5.2,3,7.8,4.5c2.6,1.5,5.1,3.1,7.6,4.8c2.5,1.6,5,3.3,7.5,4.9c2.5,1.7,4.9,3.3,7.4,5.2
					c2.5,1.9,5,4,7.1,6.6c2.1,2.7,3.7,5.7,4.9,8.7c2.3,6.1,3.2,12.1,4.7,17.6c0.7,2.7,1.5,5.3,2.6,7.6c1.1,2.4,2.5,4.5,4.2,6.6
					c3.4,4.2,7.8,7.9,12.4,11.7c2.2,1.9,4.6,3.9,6.8,6.1c2.2,2.2,4.3,4.5,6.1,7c1.8,2.5,3.4,5.3,4.4,8.2c0.2,0.7,0.5,1.5,0.7,2.2
					c0.1,0.4,0.2,0.7,0.3,1.1l0.2,1.1C1370.1,910.6,1370.1,912.1,1370,913.6z"/>
			</g>
			<g>
				<path class="st4" d="M1322,841c-3.2,1-6.3,1.1-9.2,1c-3-0.1-5.8-0.5-8.7-1.2c-2.8-0.7-5.6-1.7-8.2-3c-2.7-1.3-5.3-2.9-7.7-5.3
					c3.2-1,6.3-1.1,9.2-1.1c3,0.1,5.8,0.5,8.7,1.3c2.8,0.7,5.6,1.7,8.2,3C1317,837,1319.6,838.6,1322,841z"/>
			</g>
			<g>
				<path class="st4" d="M1321.9,874.6c-5.7,0.5-10.8,1.4-16.1,2.3c-5.3,0.8-10.8,1.6-16.6,1.5c-5.9-0.1-11.8-1.5-17.1-4.5
					c-2.6-1.5-5-3.4-6.9-5.8c-1.9-2.4-3.2-5.2-3.4-8.1c3.8,4.3,8.2,6.5,13,7.9c4.7,1.4,9.7,2,14.7,2.2c5.1,0.1,10.5-0.1,16.1,0.3
					c2.8,0.2,5.6,0.5,8.4,1.2C1316.7,872.2,1319.5,873.2,1321.9,874.6z"/>
			</g>
			<g>
				<path class="st4" d="M1527.9,828.6c0.1-1.1,0.3-2.3,0.7-3.4c0.4-1.1,0.9-2.2,1.5-3.2c1.2-2,2.7-3.8,4.1-5.6
					c1.4-1.7,2.8-3.4,3.8-5.1c1.1-1.7,1.9-3.5,2.6-5.4c0.7-1.9,1.1-3.8,1.3-5.7c0.2-1.9,0.2-3.9,0.1-6c-0.2-4.2-0.8-8.7-0.6-13.6
					c0.1-1.2,0.2-2.4,0.3-3.7c0.2-1.2,0.4-2.4,0.6-3.6c0.3-1.2,0.6-2.4,0.9-3.5c0.4-1.1,0.7-2.3,1.2-3.4c1.7-4.5,4-8.6,6.7-12.4
					c5.3-7.6,11.8-14,18.9-19.7c-4.4,7.9-9.4,15.3-13.3,23c-3.9,7.7-6.7,15.6-7,23.6c-0.2,4,0.3,8.4,0.2,13.1
					c-0.1,2.4-0.2,4.8-0.8,7.3c-0.5,2.5-1.4,4.9-2.5,7.1c-1.1,2.2-2.6,4.3-4.2,6.1c-1.7,1.8-3.5,3.3-5.3,4.7
					C1533.6,822.1,1530,824.5,1527.9,828.6z"/>
			</g>
			<g>
				<path class="st4" d="M1492.1,874.5c-1.4-6.8-3.6-12.7-6.8-18.1c-3.1-5.3-7.2-9.9-12-13.5c-4.6-3.6-10.7-6-16.7-9.6
					c-3-1.8-5.9-4-8.3-6.8c-2.3-2.7-4.2-6.1-4.5-9.6c2,2.8,4.5,4.8,7.2,6.5c2.7,1.6,5.5,2.9,8.5,4c3,1.1,6.1,2.2,9.3,3.5
					c1.6,0.7,3.2,1.4,4.8,2.3c0.8,0.4,1.6,0.9,2.4,1.4c0.8,0.5,1.6,1,2.3,1.6c5.9,4.4,10.4,10.6,12.9,17.4
					C1493.6,860.4,1494.2,867.9,1492.1,874.5z"/>
			</g>
			<g>
				<path class="st4" d="M1487.9,842.5c-1.9-6.4-3.2-13-4.1-19.7c-0.8-6.7-1-13.6-0.4-20.4c0.4-3.4,0.9-6.9,1.8-10.3
					c0.4-1.7,1-3.4,1.5-5.1c0.3-0.8,0.6-1.6,1-2.5c0.3-0.8,0.6-1.7,1-2.4c1.5-3.2,3.3-6.3,5.3-9.2c2-2.9,4.2-5.6,6.5-8.2
					c2.3-2.6,4.6-5,7-7.4l7.1-7c4.7-4.6,9.2-9.4,13.7-14.2c9-9.6,17.6-19.6,26.3-29.8c-5.9,12-13.2,23.4-21.4,34
					c-4.1,5.3-8.4,10.4-13,15.4c-2.3,2.5-4.6,4.9-6.9,7.3c-2.3,2.4-4.5,4.7-6.7,7.1c-4.3,4.8-8.1,9.8-10.9,15.3
					c-2.8,5.5-4.7,11.5-6,17.8c-1.2,6.3-1.8,12.7-2,19.3C1487.7,829.2,1487.9,835.8,1487.9,842.5z"/>
			</g>
			<g>
				<path class="st4" d="M1581.7,639.5c1.3,0.6,2.6,1.3,3.9,1.9c1.2,0.7,2.5,1.5,3.8,2.2c1.2,0.8,2.4,1.6,3.6,2.5
					c1.2,0.9,2.3,1.8,3.5,2.7c4.6,3.7,8.8,7.8,12.7,12.2c7.8,8.8,14.4,18.4,20.6,28c1.6,2.4,3.1,4.9,4.6,7.4
					c1.5,2.6,2.9,5.2,4.1,7.9c2.5,5.5,4.4,11.4,4.8,17.7c0.4,6.2-0.6,11.9-0.5,17.3c0,2.7,0.4,5.4,1.2,8c0.8,2.6,2.2,5.1,4.4,7
					c-1.3-0.6-2.6-1.5-3.7-2.5c-1.1-1-2-2.3-2.8-3.6c-1.6-2.6-2.6-5.5-3.2-8.5c-1.2-6-0.9-11.8-1.9-17c-0.9-5.2-2.9-10.2-5.4-15
					c-1.3-2.4-2.6-4.8-4.1-7.2c-1.4-2.4-3-4.8-4.5-7.1c-6.2-9.6-12.2-19.3-18.7-28.4C1597.6,655.8,1590.4,647.2,1581.7,639.5z"/>
			</g>
			<g>
				<path class="st4" d="M1628.1,721.2c-6.9,1.1-14.3-0.5-20.6-3.9c-6.4-3.5-11.9-8.8-15.5-15.3c-0.5-0.8-0.9-1.6-1.2-2.5
					c-0.4-0.8-0.8-1.7-1.1-2.5c-0.3-0.9-0.6-1.7-0.9-2.6c-0.3-0.9-0.5-1.7-0.7-2.6c-0.9-3.5-1.4-6.9-1.8-10.3
					c-0.7-6.8-0.9-13.4-1.4-20.3c2,2.9,3.4,6.1,4.6,9.3c1.2,3.2,2.2,6.5,3.2,9.7c1.9,6.4,3.7,12.5,6.6,17.8
					c2.9,5.3,6.9,10,11.8,13.9C1615.9,715.8,1621.6,718.9,1628.1,721.2z"/>
			</g>
			<g>
				<path class="st4" d="M1614.4,612.5c1.6,9.3,2.6,18.6,4.6,27.3c1,4.4,2.2,8.6,3.8,12.7c1.6,4,3.7,7.9,5.8,12.3
					c1,2.2,2,4.4,2.8,6.9c0.4,1.2,0.8,2.5,1,3.7l0.4,1.9l0.3,1.9c0.7,5.1,0.2,10.2-0.8,15c-1,4.8-2.7,9.4-4.6,13.7
					c-1,2.2-2,4.3-3.2,6.3c-1.1,2.1-2.3,4.1-3.6,6.1c1.8-9.3,4.3-18.3,5-27.1c0.2-2.2,0.2-4.4,0.2-6.5c-0.1-1.1-0.1-2.1-0.2-3.2
					c-0.2-1-0.2-2.1-0.5-3.1l-0.3-1.5l-0.4-1.5c-0.2-1-0.6-2-0.9-3c-0.7-2-1.6-4-2.6-6c-0.9-2-2-4.1-3-6.3c-1-2.2-1.9-4.5-2.7-6.9
					c-1.5-4.7-2.4-9.5-2.9-14.4C1611.7,631.2,1612.6,621.7,1614.4,612.5z"/>
			</g>
			<g>
				<path class="st4" d="M1263.8,955.3c-9.2-6.9-17-15.7-23.4-25.4c-6.4-9.8-11.3-20.5-14.4-31.8c-0.7-2.8-1.5-5.7-2.1-8.6
					c-0.5-2.9-1-5.8-1.3-8.8c-0.5-5.9-0.2-12.1,1.2-18c1.3-5.9,3.6-11.3,6.2-16.5c1.3-2.6,2.7-5.1,4.3-7.5c1.5-2.4,3.1-4.9,4.7-7.2
					c-3.4,11-7.5,21.6-8.8,32.4c-1.4,10.6,0.8,21.3,3.7,32c2.9,10.6,7,20.9,12.1,30.8C1251.1,936.6,1257.1,946,1263.8,955.3z"/>
			</g>
			<g>
				<path class="st4" d="M1230.8,909.9c-2.2,1.8-5,2.3-7.6,2.1c-2.7-0.2-5.2-1.2-7.4-2.8c-2.1-1.6-3.9-3.7-4.9-6.1
					c-1-2.4-1.4-5.2-0.3-7.9l10.1,7.3L1230.8,909.9z"/>
			</g>
			<g>
				<path class="st4" d="M1099.2,986.7c-4-6.1-5.5-13.7-5.4-21c0-7.4,1.6-14.6,3.7-21.4c2.1-6.8,4.9-13.3,7.6-19.6
					c1.4-3.2,2.7-6.1,3.4-9.3c0.7-3.1,0.9-6.4-0.7-9.7c1.5,1,2.7,2.6,3.5,4.3c0.8,1.8,1.2,3.7,1.3,5.6c0.3,3.8-0.4,7.6-1.3,11.1
					c-1.6,6.9-3.9,13.6-5.9,20.1c-2.1,6.5-4,12.9-5.1,19.5C1099,972.8,1098.6,979.5,1099.2,986.7z"/>
			</g>
			<g>
				<path class="st4" d="M1100.7,945.8c-5.2-0.7-10-3-14.3-6c-4.2-3.1-7.9-7.1-10.7-11.5c-2.8-4.5-4.8-9.5-5.7-14.6
					c-0.9-5.2-0.9-10.5,0.8-15.5c1.8,4.9,3.5,9.3,5.5,13.6c1.9,4.2,4.1,8.3,6.5,12.1c2.4,3.9,5.1,7.6,8.1,11.2
					C1093.8,938.6,1097.1,942.1,1100.7,945.8z"/>
			</g>
			<g>
				<path class="st4" d="M1101.8,973.8c1.4-5.2,4.1-9.9,7.3-14.2c3.2-4.2,7.2-8,11.5-11.1c4.2-3.1,8.3-5.5,11.4-8.6
					c1.5-1.5,2.9-3.3,3.8-5.4c1-2.1,1.6-4.4,1.4-7.1c1.9,2,2.7,5,2.6,8c-0.1,3-1.1,5.8-2.6,8.4c-1.5,2.6-3.5,4.7-5.6,6.5
					c-1,0.9-2.1,1.8-3.1,2.6l-3.1,2.3c-4,2.9-7.8,5.8-11.7,8.9C1109.9,967.2,1106.1,970.5,1101.8,973.8z"/>
			</g>
			<g>
				<path class="st4" d="M1476.4,984.9c-2.1-5.2-5-9.1-8.3-12.9c-3.3-3.8-6.9-7.5-10.4-11.7c-3.4-4.2-6.4-8.8-8.9-13.7
					c-0.6-1.2-1.2-2.5-1.7-3.7l-0.4-0.9l-0.2-0.5l-0.2-0.6c-0.3-0.8-0.5-1.5-0.6-2.3c-0.3-1.6-0.2-3.3,0.4-4.8
					c0.3-0.8,0.8-1.4,1.4-1.9c0.6-0.5,1.3-0.8,2-0.9c-0.9,1.1-1.3,2.3-1.1,3.4c0.1,1.1,0.6,2.1,1.2,3c0.3,0.5,0.6,0.9,1,1.3l0.3,0.3
					l0.3,0.4l0.6,0.8l2.5,3c3.3,4,6.6,8,9.8,12c3.2,4,6.7,8.3,9.3,13.3c1.3,2.5,2.4,5.2,3,8C1477,979.3,1477.1,982.2,1476.4,984.9z"
					/>
			</g>
			<g>
				<path class="st4" d="M1563.8,907.1c-0.5,3.4-1.7,6.7-3.4,9.7c-1.7,3.1-3.8,5.9-6.2,8.5c-4.8,5.1-10.8,9.2-17.4,11.8
					c-0.8,0.3-1.7,0.6-2.5,0.9l-2.6,0.8c-1.7,0.4-3.2,0.8-4.4,1.2c-0.6,0.2-1.1,0.4-1.6,0.7c-0.4,0.3-0.8,0.5-1.2,0.8
					c-0.8,0.7-1.5,1.8-2.3,3.2c-3.2,5.5-5.9,11.3-8.7,17.6c-0.7-6.8,0.5-13.7,2.7-20.2c0.6-1.6,1.3-3.5,2.7-5.3
					c0.7-0.9,1.6-1.7,2.5-2.4c0.9-0.7,1.9-1.2,2.8-1.6c1.9-0.8,3.6-1.3,5.1-1.7l2.2-0.7c0.7-0.2,1.4-0.6,2.1-0.8
					c5.6-2.3,11.1-5.2,16.1-8.9C1555,916.8,1559.6,912.4,1563.8,907.1z"/>
			</g>
		</g>
		<g id="grass5">
			<g>
				<path class="st4" d="M1600.7,872.4c0.1-1.1,0.3-2.3,0.7-3.4c0.4-1.1,0.9-2.2,1.5-3.2c1.2-2,2.7-3.8,4.1-5.6
					c1.4-1.7,2.8-3.4,3.8-5.1c1.1-1.7,1.9-3.5,2.6-5.4c0.7-1.9,1.1-3.8,1.3-5.7c0.2-1.9,0.2-3.9,0.1-6c-0.2-4.2-0.8-8.7-0.6-13.6
					c0.1-1.2,0.2-2.4,0.3-3.7c0.2-1.2,0.4-2.4,0.6-3.6c0.3-1.2,0.6-2.4,0.9-3.5c0.4-1.1,0.7-2.3,1.2-3.4c1.7-4.5,4-8.6,6.7-12.4
					c5.3-7.6,11.8-14,18.9-19.7c-4.4,7.9-9.4,15.3-13.3,23c-3.9,7.7-6.7,15.6-7,23.6c-0.2,4,0.3,8.4,0.2,13.1
					c-0.1,2.4-0.2,4.8-0.8,7.3c-0.5,2.5-1.4,4.9-2.5,7.1c-1.1,2.2-2.6,4.3-4.2,6.1c-1.7,1.8-3.5,3.3-5.3,4.7
					C1606.3,865.9,1602.8,868.2,1600.7,872.4z"/>
			</g>
			<g>
				<path class="st4" d="M1670,946.2c-1.4-6.8-3.6-12.7-6.8-18.1c-3.1-5.3-7.2-9.9-12-13.5c-4.6-3.6-10.7-6-16.7-9.6
					c-3-1.8-5.9-4-8.3-6.8c-2.3-2.7-4.2-6.1-4.5-9.6c2,2.8,4.5,4.8,7.2,6.5c2.7,1.6,5.5,2.9,8.5,4c3,1.1,6.1,2.2,9.3,3.5
					c1.6,0.7,3.2,1.4,4.8,2.3c0.8,0.4,1.6,0.9,2.4,1.4c0.8,0.5,1.6,1,2.3,1.6c5.9,4.4,10.4,10.6,12.9,17.4
					C1671.6,932.1,1672.1,939.6,1670,946.2z"/>
			</g>
			<g>
				<path class="st4" d="M1665.9,914.2c-1.9-6.4-3.2-13-4.1-19.7c-0.8-6.7-1-13.6-0.4-20.4c0.4-3.4,0.9-6.9,1.8-10.3
					c0.4-1.7,1-3.4,1.5-5.1c0.3-0.8,0.6-1.6,1-2.5c0.3-0.8,0.6-1.7,1-2.4c1.5-3.2,3.3-6.3,5.3-9.2c2-2.9,4.2-5.6,6.5-8.2
					c2.3-2.6,4.6-5,7-7.4l7.1-7c4.7-4.6,9.2-9.4,13.7-14.2c9-9.6,17.6-19.6,26.3-29.8c-5.9,12-13.2,23.4-21.4,34
					c-4.1,5.3-8.4,10.4-13,15.4c-2.3,2.5-4.6,4.9-6.9,7.3c-2.3,2.4-4.5,4.7-6.7,7.1c-4.3,4.8-8.1,9.8-10.9,15.3
					c-2.8,5.5-4.7,11.5-6,17.8c-1.2,6.3-1.8,12.7-2,19.3C1665.6,900.9,1665.8,907.5,1665.9,914.2z"/>
			</g>
			<g>
				<path class="st4" d="M1727.4,641c1.3,0.6,2.6,1.3,3.9,1.9c1.2,0.7,2.5,1.5,3.8,2.2c1.2,0.8,2.4,1.6,3.6,2.5
					c1.2,0.9,2.3,1.8,3.5,2.7c4.6,3.7,8.8,7.8,12.7,12.2c7.8,8.8,14.4,18.4,20.6,28c1.6,2.4,3.1,4.9,4.6,7.4
					c1.5,2.6,2.9,5.2,4.1,7.9c2.5,5.5,4.4,11.4,4.8,17.7c0.4,6.2-0.6,11.9-0.5,17.3c0,2.7,0.4,5.4,1.2,8c0.8,2.6,2.2,5.1,4.4,7
					c-1.3-0.6-2.6-1.5-3.7-2.5c-1.1-1-2-2.3-2.8-3.6c-1.6-2.6-2.6-5.5-3.2-8.5c-1.2-6-0.9-11.8-1.9-17c-0.9-5.2-2.9-10.2-5.4-15
					c-1.3-2.4-2.6-4.8-4.1-7.2c-1.4-2.4-3-4.8-4.5-7.1c-6.2-9.6-12.2-19.3-18.7-28.4C1743.3,657.4,1736.1,648.8,1727.4,641z"/>
			</g>
			<g>
				<path class="st4" d="M1773.8,722.8c-6.9,1.1-14.3-0.5-20.6-3.9c-6.4-3.5-11.9-8.8-15.5-15.3c-0.5-0.8-0.9-1.6-1.2-2.5
					c-0.4-0.8-0.8-1.7-1.1-2.5c-0.3-0.9-0.6-1.7-0.9-2.6c-0.3-0.9-0.5-1.7-0.7-2.6c-0.9-3.5-1.4-6.9-1.8-10.3
					c-0.7-6.8-0.9-13.4-1.4-20.3c2,2.9,3.4,6.1,4.6,9.3c1.2,3.2,2.2,6.5,3.2,9.7c1.9,6.4,3.7,12.5,6.6,17.8
					c2.9,5.3,6.9,10,11.8,13.9C1761.6,717.3,1767.3,720.4,1773.8,722.8z"/>
			</g>
			<g>
				<path class="st4" d="M1760.1,614c1.6,9.3,2.6,18.6,4.6,27.3c1,4.4,2.2,8.6,3.8,12.7c1.6,4,3.7,7.9,5.8,12.3c1,2.2,2,4.4,2.8,6.9
					c0.4,1.2,0.8,2.5,1,3.7l0.4,1.9l0.3,1.9c0.7,5.1,0.2,10.2-0.8,15c-1,4.8-2.7,9.4-4.6,13.7c-1,2.2-2,4.3-3.2,6.3
					c-1.1,2.1-2.3,4.1-3.6,6.1c1.8-9.3,4.3-18.3,5-27.1c0.2-2.2,0.2-4.4,0.2-6.5c-0.1-1.1-0.1-2.1-0.2-3.2c-0.2-1-0.2-2.1-0.5-3.1
					l-0.3-1.5l-0.4-1.5c-0.2-1-0.6-2-0.9-3c-0.7-2-1.6-4-2.6-6c-0.9-2-2-4.1-3-6.3c-1-2.2-1.9-4.5-2.7-6.9
					c-1.5-4.7-2.4-9.5-2.9-14.4C1757.4,632.7,1758.3,623.3,1760.1,614z"/>
			</g>
			<g>
				<path class="st4" d="M346.5,1073.3c-6.9,1.1-14.3-0.5-20.6-3.9c-6.4-3.5-11.9-8.8-15.5-15.3c-0.5-0.8-0.9-1.6-1.2-2.5
					c-0.4-0.8-0.8-1.7-1.1-2.5c-0.3-0.9-0.6-1.7-0.9-2.6c-0.3-0.9-0.5-1.7-0.7-2.6c-0.9-3.5-1.4-6.9-1.8-10.3
					c-0.7-6.8-0.9-13.4-1.4-20.3c2,2.9,3.4,6.1,4.6,9.3c1.2,3.2,2.2,6.5,3.2,9.7c1.9,6.4,3.7,12.5,6.6,17.8
					c2.9,5.3,6.9,10,11.8,13.9C334.3,1067.8,340,1070.9,346.5,1073.3z"/>
			</g>
			<g>
				<path class="st4" d="M332.8,964.5c1.6,9.3,2.6,18.6,4.6,27.3c1,4.4,2.2,8.6,3.8,12.7c1.6,4,3.7,7.9,5.8,12.3
					c1,2.2,2,4.4,2.8,6.9c0.4,1.2,0.8,2.5,1,3.7l0.4,1.9l0.3,1.9c0.7,5.1,0.2,10.2-0.8,15c-1,4.8-2.7,9.4-4.6,13.7
					c-1,2.2-2,4.3-3.2,6.3c-1.1,2.1-2.3,4.1-3.6,6.1c1.8-9.3,4.3-18.3,5-27.1c0.2-2.2,0.2-4.4,0.2-6.5c-0.1-1.1-0.1-2.1-0.2-3.2
					c-0.2-1-0.2-2.1-0.5-3.1l-0.3-1.5l-0.4-1.5c-0.2-1-0.6-2-0.9-3c-0.7-2-1.6-4-2.6-6c-0.9-2-2-4.1-3-6.3c-1-2.2-1.9-4.5-2.7-6.9
					c-1.5-4.7-2.4-9.5-2.9-14.4C330.1,983.3,331,973.8,332.8,964.5z"/>
			</g>
			<g>
				<path class="st4" d="M1256.1,1035.5c1.4-5.2,4.1-9.9,7.3-14.2c3.2-4.2,7.2-8,11.5-11.1c4.2-3.1,8.3-5.5,11.4-8.6
					c1.5-1.5,2.9-3.3,3.8-5.4c1-2.1,1.6-4.4,1.4-7.1c1.9,2,2.7,5,2.6,8c-0.1,3-1.1,5.8-2.6,8.4c-1.5,2.6-3.5,4.7-5.6,6.5
					c-1,0.9-2.1,1.8-3.1,2.6l-3.1,2.3c-4,2.9-7.8,5.8-11.7,8.9C1264.2,1028.9,1260.4,1032.2,1256.1,1035.5z"/>
			</g>
		</g>
		<g id="grass4">
			<g>
				<path class="st4" d="M1822.7,1149.1l-2.6-2.1c-0.9-0.7-1.7-1.4-2.5-2.2c-1.6-1.5-3.3-3.1-4.8-4.8c-3.1-3.3-5.8-6.9-8.3-10.8
					l-1.8-3c-0.6-1-1-2-1.6-3.1l-0.8-1.5l-0.7-1.6c-0.4-1.1-0.9-2.1-1.3-3.2l-1.1-3.3c-0.4-1.1-0.6-2.3-0.8-3.4l-0.4-1.7l-0.3-1.7
					c-0.2-1.2-0.4-2.3-0.5-3.5c-0.5-4.7-0.2-9.4,0.5-14.1l0.7-3.5c0.3-1.1,0.6-2.3,0.9-3.4c0.6-2.3,1.5-4.5,2.4-6.6
					c3.6-8.6,8.4-16.2,12.7-23.9c4.3-7.6,7.9-15.4,11-23.6c3.1-8.2,5.7-16.6,8.1-25.1l3.5-12.8c0.6-2.1,1.2-4.3,1.7-6.4
					c0.5-2.1,0.9-4.1,0.9-6.1c0-2-0.3-3.9-1.2-5.8c-0.9-1.9-2.1-3.6-3.5-5.3c-1.4-1.7-2.9-3.3-4.5-4.8c-1.6-1.6-3.2-3-4.9-4.6
					c3.8,2.4,7.5,4.9,10.9,8c1.7,1.5,3.2,3.3,4.5,5.4c1.3,2,2.1,4.5,2.3,7c0.2,2.5,0,4.9-0.4,7.1c-0.4,2.3-0.8,4.4-1.2,6.6
					c-0.8,4.4-1.7,8.8-2.6,13.2c-1.9,8.8-4.2,17.5-7.1,26.1c-1.5,4.3-3.2,8.5-5,12.7c-1.9,4.1-4,8.2-6.2,12.2
					c-4.4,7.9-9.2,15.3-12.7,23c-0.9,1.9-1.7,3.9-2.3,5.9l-1,3l-0.7,3c-0.3,1-0.4,2.1-0.6,3.1l-0.2,1.6c-0.1,0.5-0.1,1-0.1,1.6
					c-0.1,1-0.2,2.1-0.2,3.1l0,3.2c0.2,4.2,0.8,8.4,1.8,12.5c1.1,4.1,2.6,8.2,4.6,12.1c0.4,1,1,1.9,1.5,2.9c0.5,0.9,1,1.9,1.6,2.9
					c1.2,1.9,2.3,3.7,3.6,5.5C1817,1142.3,1819.8,1145.7,1822.7,1149.1z"/>
			</g>
			<g>
				<path class="st4" d="M1806.5,1117.3c-0.4-0.8-0.6-1.7-0.7-2.6c-0.1-0.9,0.1-1.9,0.3-2.8c0.5-1.9,1.5-3.5,2.5-5
					c2.2-3,5-5.4,7.7-7.6c2.7-2.2,5.5-4.2,8-6.2c2.5-2,4.7-4.2,6.9-6.6c0.5-0.6,1.1-1.2,1.6-1.8c0.5-0.6,1.1-1.2,1.6-1.9
					c1.1-1.3,2.1-2.6,3.2-3.9c2.2-2.7,4.4-5.4,7.1-7.8c2.6-2.5,5.6-4.6,8.8-6.3l2.4-1.1c0.8-0.3,1.7-0.6,2.5-0.9
					c1.7-0.6,3.4-0.9,5.1-1.2c-2.9,2.1-5.6,4-8.1,6.2c-2.4,2.2-4.6,4.6-6.6,7.2c-4,5.1-7.3,11.1-12.2,16.5c-1.2,1.4-2.5,2.6-3.9,3.9
					c-1.4,1.2-2.8,2.4-4.3,3.4c-3,2-6,3.7-9,5.4c-2.9,1.7-5.8,3.3-8.3,5.2c-1.3,1-2.4,2.1-3.3,3.4
					C1807.1,1114,1806.5,1115.5,1806.5,1117.3z"/>
			</g>
			<g>
				<path class="st4" d="M1807.9,1086c-0.6-0.4-1.2-1.1-1.4-1.9c-0.2-0.9,0-1.8,0.4-2.5c0.8-1.5,2-2.7,3.2-3.7
					c1.2-1.1,2.5-2,3.8-2.9l3.8-2.6c5.1-3.5,10.2-7,15.2-10.6c5-3.6,9.9-7.2,14.5-11.1c4.6-3.9,9-8,12.7-12.5c1.8-2.3,3.6-4.6,5-7.1
					c1.5-2.5,2.8-5.2,4.1-8c1.3-2.8,2.7-5.7,4.3-8.5c1.6-2.8,3.5-5.6,5.7-8.1c4.4-5,9.8-8.7,15.5-11.7c2.8-1.4,5.8-2.7,8.7-3.7
					c3-1,6-1.9,9-2.6c-5.6,2.9-10.9,5.9-15.9,9.4c-4.9,3.5-9.5,7.5-12.8,12.2c-1.7,2.3-3.1,4.8-4.4,7.5c-1.3,2.7-2.4,5.5-3.6,8.3
					c-1.2,2.9-2.5,5.8-4.1,8.7c-1.6,2.9-3.6,5.6-5.6,8.2c-4.2,5-9,9.4-14.1,13.2c-5.1,3.9-10.3,7.3-15.8,10.5
					c-5.4,3.2-10.9,6.1-16.6,8.8l-4.2,2c-1.4,0.7-2.8,1.3-4.1,2c-1.3,0.7-2.5,1.6-3.5,2.7c-0.5,0.5-0.8,1.2-0.8,1.9
					C1807,1084.7,1807.4,1085.4,1807.9,1086z"/>
			</g>
			<g>
				<path class="st4" d="M1833.7,1042.6c-0.8-0.8-1.4-1.9-1.6-3.1c-0.3-1.2-0.2-2.5,0.1-3.7c0.5-2.4,1.7-4.6,2.9-6.6
					c2.4-3.9,5.1-7.6,7.9-11.2c5.5-7.2,11.3-13.9,15.6-21.2c2.2-3.6,3.9-7.3,4.9-11.2c1.1-4,1.5-8.5,2.9-13.2c0.7-2.3,1.7-4.6,3-6.8
					c1.3-2.1,2.9-4,4.8-5.6c1.8-1.6,3.8-2.9,6-3.9c2.1-1,4.3-1.7,6.6-2.2c-1.9,1.2-3.8,2.5-5.5,3.9c-1.7,1.4-3.2,3-4.4,4.6
					c-1.3,1.7-2.3,3.5-3.1,5.3c-0.4,0.9-0.7,1.9-1,2.9c-0.3,1-0.5,2-0.7,3c-0.7,4.1-0.8,8.6-1.7,13.4c-0.2,1.2-0.5,2.4-0.9,3.6
					l-0.6,1.8l-0.7,1.7c-0.9,2.3-2.1,4.4-3.3,6.5c-2.5,4.1-5.3,7.8-8.3,11.2c-3,3.5-6.1,6.7-9.3,9.9c-3.1,3.2-6.3,6.4-9.4,9.6
					c-1.5,1.6-2.9,3.2-3.9,5C1833.1,1038.3,1832.8,1040.5,1833.7,1042.6z"/>
			</g>
			<g>
				<path class="st4" d="M1185.6,756.1c-5.7,0.5-10.8,1.4-16.1,2.3c-5.3,0.8-10.8,1.6-16.6,1.5c-5.9-0.1-11.8-1.5-17.1-4.5
					c-2.6-1.5-5-3.4-6.9-5.8c-1.9-2.4-3.2-5.2-3.4-8.1c3.8,4.3,8.2,6.5,13,7.9c4.7,1.4,9.7,2,14.7,2.2c5.1,0.1,10.5-0.1,16.1,0.3
					c2.8,0.2,5.6,0.5,8.4,1.2C1180.4,753.7,1183.1,754.6,1185.6,756.1z"/>
			</g>
			<g>
				<path class="st4" d="M1344.1,787.3c-1.9-18.8-3-37.7-3.9-56.6c-0.4-9.4-0.7-18.9-1-28.3l-0.2-7.1c0-2.4-0.1-4.6-0.1-7.3
					c0.1-2.6,0.4-5.6,1.8-8.5c1.4-2.9,3.6-5.1,5.6-6.8c2.1-1.7,4-3,5.6-4.3c0.8-0.6,1.5-1.4,2.2-2c0.3-0.4,0.7-0.8,1-1.1
					c0.3-0.4,0.7-0.7,0.9-1.2c2.4-3.3,4.1-7.1,5.1-11.4c1.1-4.2,1.6-8.7,1.9-13.2c0.3-4.6,0.3-9.2,0.3-13.9c0-9.4-0.2-18.6-1.8-27.7
					c-1.5-9.1-4.8-17.9-10.9-25.3c0.9,0.8,1.8,1.6,2.6,2.4c0.8,0.9,1.6,1.8,2.4,2.6c0.8,0.9,1.4,1.9,2.2,2.9c0.7,1,1.3,2,2,3
					c2.5,4.2,4.2,8.7,5.6,13.4c2.7,9.3,3.7,19,4.4,28.4c0.3,4.7,0.6,9.5,0.5,14.4c0,4.9-0.5,9.8-1.6,14.8c-1.1,5-3.1,9.9-6.2,14.4
					c-0.4,0.6-0.8,1.1-1.2,1.6c-0.4,0.5-0.9,1-1.3,1.5c-1,0.9-1.9,1.9-3,2.8c-2,1.7-4,3-5.6,4.3c-1.6,1.3-2.8,2.6-3.4,3.9
					c-0.7,1.4-1,3.2-1.1,5.3c-0.1,2.1,0,4.5-0.1,6.9l0,7.1c0,9.4-0.2,18.9-0.4,28.3C1346.3,749.5,1345.6,768.4,1344.1,787.3z"/>
			</g>
			<g>
				<path class="st4" d="M1331.6,671.9c-1.4-6.8-3.6-12.7-6.8-18.1c-3.1-5.3-7.2-9.9-12-13.5c-4.6-3.6-10.7-6-16.7-9.6
					c-3-1.8-5.9-4-8.3-6.8c-2.3-2.7-4.2-6.1-4.5-9.6c2,2.8,4.5,4.8,7.2,6.5c2.7,1.6,5.5,2.9,8.5,4c3,1.1,6.1,2.2,9.3,3.5
					c1.6,0.7,3.2,1.4,4.8,2.3c0.8,0.4,1.6,0.9,2.4,1.4c0.8,0.5,1.6,1,2.3,1.6c5.9,4.4,10.4,10.6,12.9,17.4
					C1333.1,657.8,1333.7,665.3,1331.6,671.9z"/>
			</g>
			<g>
				<path class="st4" d="M735.5,847.8c9.6-0.4,19.2,2.2,27.9,6.5c8.7,4.4,16.6,10.4,23.4,17.3c6.9,6.9,12.8,14.6,18.2,22.5
					c5.5,7.9,10.5,15.9,15.7,23.7c10.4,15.6,22,30.7,31.6,47.4c4.8,8.3,9.1,17,12.2,26.2c3.1,9.1,5.1,18.7,5.1,28.2
					c-1.9-9.3-4.9-18.3-8.9-26.7c-4-8.4-8.8-16.5-14-24.2c-10.4-15.6-22.3-30.3-32.9-46.2c-10.6-15.9-19.7-32.4-31.8-46.3
					c-6-6.9-12.9-13.2-20.7-18.2C753.7,852.8,744.9,849.2,735.5,847.8z"/>
			</g>
			<g>
				<path class="st4" d="M846.9,948.4c-1.9-3-3.1-6.5-3.9-10c-0.7-3.5-1-7.2-1-10.7c0.1-7.2,1.3-14.1,2.4-20.7l3.5-20l0.9-5l0.5-2.5
					c0.2-0.8,0.3-1.5,0.4-2.3c0.2-1.6,0.2-3.1-0.1-4.6c-0.3-1.4-1.1-2.9-2.8-3.5c0.9-0.1,1.9,0,2.7,0.5c0.9,0.5,1.6,1.2,2.2,2
					c1.1,1.6,1.7,3.5,2.1,5.4c0.2,0.9,0.3,1.9,0.4,2.8c0.1,0.9,0.1,1.7,0.2,2.6c0.1,1.7,0.1,3.5,0.1,5.2c0,7-0.6,14-1.8,20.8
					c-1.2,6.9-2.9,13.4-4.1,20C847.3,934.9,846.5,941.3,846.9,948.4z"/>
			</g>
			<g>
				<path class="st4" d="M797.6,874.6c-1.9-3.1-2.9-6.2-3.7-9.4c-0.8-3.1-1.2-6.3-1.3-9.5c-0.2-3.2,0-6.2,0.1-9c0-2.9,0.1-5.6-1-9
					c1.8,0.4,3.3,1.6,4.6,3c1.2,1.4,2.1,3.1,2.8,4.7c1.3,3.4,1.7,6.8,1.8,9.9c0.1,3.2,0,6.4-0.4,9.6
					C799.9,868.2,799.2,871.4,797.6,874.6z"/>
			</g>
			<g>
				<path class="st4" d="M731.1,908.1c6.2,4.1,12.5,7,19,8.6c6.5,1.7,13.2,2.1,19.6,1.2c0.8-0.1,1.6-0.2,2.4-0.4
					c0.8-0.1,1.6-0.3,2.5-0.5c1.8-0.4,3.9-0.9,6.5-0.7c1.3,0.1,2.7,0.5,3.9,1c1.2,0.6,2.2,1.3,3.1,2.1c0.8,0.8,1.6,1.5,2.2,2.3
					c0.6,0.7,1.2,1.5,1.8,2.2c4.5,5.9,8.2,12.6,10.2,19.7c-5-5.4-9.8-10.6-15-15.3c-0.6-0.6-1.3-1.2-1.9-1.7c-0.6-0.5-1.2-1-1.8-1.4
					c-0.6-0.4-1.1-0.6-1.5-0.8c-0.4-0.1-0.8-0.2-1.3-0.2c-1,0-2.4,0.3-4.1,0.8c-0.8,0.2-1.8,0.5-2.8,0.7c-1,0.2-1.9,0.4-2.9,0.5
					c-3.9,0.5-7.9,0.5-11.8,0c-3.9-0.6-7.7-1.7-11.2-3.3C741,919.7,734.8,914.6,731.1,908.1z"/>
			</g>
		</g>
		<g id="grass3">
			<g>
				<path class="st4" d="M1379.8,1105.5c-1-1.1-2-2.3-2.8-3.6l-0.6-1c-0.2-0.3-0.3-0.7-0.5-1c-0.4-0.7-0.6-1.4-0.9-2.1
					c-1.2-2.9-1.7-6-2-9.1c-0.3-3.1-0.2-6.2,0-9.3c0.2-3.1,0.7-6.1,1.1-9c0.9-5.9,1.8-11.6,1.7-17c-0.1-2.7-0.4-5.3-1.2-7.8
					c-0.7-2.5-1.8-5-3-7.5c-2.5-5.1-5.7-10.2-8-16.4c-1.1-3.1-1.9-6.4-2-9.8c-0.1-3.4,0.4-6.6,1-9.7c0.7-3,1.5-5.9,2.2-8.8
					c0.8-2.9,1.6-5.7,2.4-8.6c0.9-2.9,1.7-5.7,2.6-8.6c0.9-2.8,1.8-5.7,2.9-8.5c-0.1,3-0.4,6-0.6,9c-0.2,3-0.6,5.9-0.9,8.9
					c-0.3,3-0.7,5.9-1.1,8.9c-0.4,2.9-0.8,5.9-1.2,8.7c-0.3,2.8-0.4,5.5-0.2,8.1c0.3,2.5,1,5,2.1,7.5c1,2.5,2.3,5,3.7,7.5
					c1.4,2.6,2.9,5.2,4.3,8c1.4,2.8,2.6,5.8,3.5,9.1c0.8,3.3,1.2,6.6,1.1,9.9c-0.2,6.5-1.6,12.5-3.1,18.3c-0.8,2.9-1.5,5.7-2.1,8.5
					c-0.6,2.8-1.1,5.6-1.3,8.5c-0.2,2.8-0.2,5.7,0.2,8.5C1377.6,1100,1378.4,1102.8,1379.8,1105.5z"/>
			</g>
			<g>
				<path class="st4" d="M1368.6,1019.1c0.3-3.4,1.2-6.2,2.3-9c1.2-2.7,2.6-5.3,4.3-7.6c1.7-2.4,3.6-4.6,5.7-6.6
					c2.2-2,4.6-3.9,7.7-5.2c-0.2,3.4-1.2,6.3-2.3,9c-1.2,2.7-2.6,5.3-4.3,7.6c-1.7,2.4-3.6,4.6-5.7,6.6
					C1374.1,1015.8,1371.7,1017.7,1368.6,1019.1z"/>
			</g>
			<g>
				<path class="st4" d="M1390.7,1044.5c0.9-2.7,2.4-5.2,4.1-7.5c1.7-2.3,3.6-4.4,5.6-6.4c4-3.9,8.2-7.3,12-10.7
					c3.7-3.4,7-7.1,9.7-11.2c2.6-4.2,4.5-8.7,4.6-14.5c1.7,2.3,2.5,5.3,2.7,8.3c0.2,3-0.4,6.1-1.4,8.9c-2,5.7-5.6,10.6-10,14.6
					c-4.3,3.9-9,6.9-13.5,9.7C1399.8,1038.5,1395.3,1041.2,1390.7,1044.5z"/>
			</g>
			<g>
				<path class="st4" d="M998.5,987.1c7.4,5.8,14.3,12.4,19.9,20.2c2.8,3.9,5.3,8.2,7.2,12.7c0.9,2.3,1.8,4.7,2.4,7
					c0.7,2.3,1.2,4.6,1.9,6.7c0.6,2.2,1.2,4.3,2,6.2c0.4,1,0.8,1.9,1.2,2.9l0.7,1.4l0.8,1.4c0.5,0.9,1.1,1.8,1.7,2.7
					c0.6,0.9,1.3,1.7,1.9,2.6c1.4,1.6,2.8,3.3,4.4,4.8c6.3,6.2,14,11.4,21.5,17.2c-2.3-0.7-4.5-1.4-6.7-2.3
					c-2.2-0.8-4.4-1.7-6.6-2.7c-4.3-2-8.5-4.4-12.5-7.3c-3.9-2.9-7.6-6.5-10.4-10.8l-1.1-1.6l-0.9-1.7c-0.6-1.1-1.2-2.3-1.7-3.5
					c-1-2.4-1.7-4.7-2.4-7c-1.3-4.6-2.2-9-3.6-13.1c-1.5-4.1-3.3-8.1-5.4-12.1C1008.7,1002.8,1003.4,995.2,998.5,987.1z"/>
			</g>
			<g>
				<path class="st4" d="M1487.4,1067.6c-1-11.4-2.6-22.5-5.3-33.3c-2.7-10.8-6.3-21.2-11-31.2c-4.7-10-10.1-19.5-18.1-26.6
					c-8-7.3-18.1-12.7-27.8-18.7c2.8,0.7,5.5,1.5,8.3,2.4c2.7,0.9,5.5,1.8,8.2,2.9c5.4,2.2,10.6,4.9,15.5,8.4
					c4.9,3.5,9.2,8,12.6,12.8c1.8,2.4,3.3,4.9,4.8,7.5c1.5,2.6,2.8,5.2,4,7.8c5,10.6,8.3,22,9.9,33.5
					C1490,1044.5,1489.9,1056.3,1487.4,1067.6z"/>
			</g>
			<g>
				<path class="st4" d="M1482.7,1011.6l2.8-12.2l2.9-12.2c2.5,1.3,4.1,3.7,4.9,6.2c0.8,2.5,0.9,5.3,0.3,7.9c-0.6,2.6-1.9,5-3.7,6.9
					C1487.9,1010,1485.5,1011.5,1482.7,1011.6z"/>
			</g>
			<g>
				<path class="st4" d="M1632.5,983.6c-4.2-5.8-8.9-10.6-14.1-14.7c-5.2-4.2-10.8-7.8-16.6-11.4c-5.8-3.6-11.8-7.1-17.6-11.3
					c-2.9-2.1-5.9-4.5-8.2-7.5c-1.1-1.5-2.1-3.2-2.7-5.1c-0.6-1.8-0.7-3.8-0.2-5.6c0.9,3.5,3.2,5.9,5.8,7.8c2.6,1.9,5.5,3.3,8.7,4.8
					c6.2,3,12.5,6.1,18.6,9.8c6.1,3.7,12,8.2,16.8,13.8C1627.7,969.7,1631.5,976.4,1632.5,983.6z"/>
			</g>
			<g>
				<path class="st4" d="M1604.6,953.6c0.3-5.2,0.5-9.9,0.4-14.6c-0.1-4.7-0.5-9.2-1.2-13.7c-0.7-4.5-1.7-9-3-13.5
					c-1.3-4.5-2.9-8.9-4.8-13.8c4.5,2.7,8,6.7,10.7,11.2c2.7,4.5,4.4,9.6,5.2,14.8c0.8,5.2,0.6,10.6-0.5,15.7
					C1610.3,944.8,1608.1,949.7,1604.6,953.6z"/>
			</g>
			<g>
				<path class="st4" d="M1622.1,975.5c-5.4,0.3-10.4,0.3-15.4,0.5c-5,0.2-9.8,0.5-14.7,0.9l-3.8,0.3c-1.3,0.1-2.7,0.1-4,0.1
					c-2.8-0.1-5.6-0.4-8.5-1.3c-2.8-1-5.5-2.5-7.5-4.7c-2-2.1-3.4-5-3.2-7.7c1.6,2.2,3.6,3.6,5.7,4.5c2.1,0.9,4.3,1.4,6.4,1.6
					c4.4,0.3,9-0.5,14.3-1c5.3-0.5,10.8-0.2,16,0.9C1612.5,970.7,1617.6,972.5,1622.1,975.5z"/>
			</g>
			<g>
				<path class="st4" d="M136,1061.4c-0.9-1.2-1.6-2.6-2.2-4l-0.4-1.1c-0.1-0.4-0.2-0.7-0.3-1.1c-0.2-0.7-0.4-1.5-0.6-2.3
					c-0.7-3-0.7-6.2-0.5-9.3c0.2-3.1,0.8-6.2,1.5-9.2c0.7-3,1.7-5.9,2.6-8.7c1.8-5.7,3.7-11.1,4.4-16.5c0.4-2.7,0.4-5.3,0.1-7.8
					c-0.3-2.6-0.9-5.2-1.8-7.9c-1.6-5.4-4-11-5.2-17.4c-0.6-3.2-0.8-6.6-0.4-10c0.4-3.4,1.4-6.5,2.6-9.4c1.2-2.9,2.4-5.6,3.6-8.3
					c1.2-2.7,2.5-5.4,3.8-8.1c1.3-2.7,2.6-5.4,4-8c1.4-2.7,2.7-5.3,4.2-7.9c-0.6,2.9-1.3,5.8-2.1,8.7c-0.7,2.9-1.5,5.8-2.3,8.7
					c-0.8,2.9-1.6,5.7-2.5,8.6c-0.8,2.8-1.8,5.7-2.6,8.4c-0.8,2.7-1.3,5.4-1.5,8c-0.1,2.5,0.2,5.1,0.8,7.7c0.6,2.6,1.5,5.3,2.5,8
					c1,2.7,2,5.6,2.9,8.6c0.9,3,1.7,6.2,2,9.5c0.3,3.3,0.1,6.7-0.5,9.9c-1.2,6.4-3.7,12.1-6.1,17.5c-1.2,2.7-2.4,5.4-3.5,8
					c-1.1,2.7-2,5.4-2.7,8.1c-0.7,2.8-1.2,5.6-1.2,8.5C134.7,1055.6,135.1,1058.5,136,1061.4z"/>
			</g>
			<g>
				<path class="st4" d="M139,974.3c0.8-3.3,2.2-6,3.8-8.5c1.6-2.5,3.4-4.8,5.5-6.8c2-2.1,4.2-4,6.7-5.6c2.5-1.6,5.1-3.1,8.4-3.9
					c-0.8,3.3-2.2,6-3.8,8.5c-1.6,2.5-3.4,4.8-5.5,6.8c-2,2.1-4.3,4-6.7,5.6C144.9,972,142.3,973.5,139,974.3z"/>
			</g>
			<g>
				<path class="st4" d="M156.6,1003c1.3-2.5,3.2-4.8,5.2-6.8c2-2,4.3-3.8,6.5-5.4c4.6-3.2,9.3-5.9,13.6-8.7
					c4.2-2.7,8.1-5.8,11.4-9.5c3.3-3.7,5.9-7.9,6.9-13.5c1.3,2.6,1.7,5.7,1.3,8.7c-0.3,3-1.4,5.9-2.8,8.6
					c-2.9,5.3-7.3,9.6-12.2,12.8c-4.9,3.1-9.9,5.3-14.9,7.4C166.6,998.6,161.7,1000.5,156.6,1003z"/>
			</g>
			<g>
				<path class="st4" d="M248.4,1041.4c0.9-11.5,1-22.7,0.1-33.8c-0.9-11.1-2.8-22-5.8-32.6c-3.1-10.6-6.8-20.9-13.6-29.2
					c-6.7-8.5-15.8-15.4-24.4-23c2.6,1.1,5.2,2.4,7.8,3.7c2.6,1.3,5.1,2.7,7.6,4.2c4.9,3,9.7,6.5,13.9,10.8
					c4.2,4.2,7.8,9.4,10.4,14.7c1.3,2.7,2.5,5.4,3.5,8.2c1,2.8,1.9,5.6,2.7,8.4c3.2,11.3,4.7,23,4.4,34.7
					C254.7,1019.1,252.6,1030.7,248.4,1041.4z"/>
			</g>
			<g>
				<path class="st4" d="M252.7,985.3l4.7-11.6l4.8-11.5c2.3,1.7,3.4,4.3,3.9,6.9c0.4,2.6,0,5.4-1,7.8c-1,2.4-2.7,4.7-4.8,6.2
					C258.2,984.7,255.6,985.7,252.7,985.3z"/>
			</g>
			<g>
				<path class="st4" d="M405.1,981.9c-3.2-6.4-7.1-11.9-11.6-16.8c-4.4-5-9.4-9.4-14.6-13.9c-5.2-4.5-10.5-9-15.5-14
					c-2.5-2.5-5.1-5.4-6.9-8.8c-0.9-1.7-1.6-3.5-1.8-5.5c-0.3-1.9,0-3.9,0.7-5.5c0.3,3.6,2.2,6.3,4.4,8.6c2.3,2.3,4.9,4.2,7.8,6.1
					c5.6,4,11.4,8,16.8,12.7c5.4,4.7,10.5,10,14.3,16.3C402.6,967.4,405.3,974.7,405.1,981.9z"/>
			</g>
			<g>
				<path class="st4" d="M382.4,947.9c1.1-5.1,2.1-9.7,2.8-14.4c0.7-4.6,1-9.2,1-13.7c0-4.6-0.2-9.1-0.8-13.8
					c-0.5-4.7-1.5-9.3-2.5-14.4c4,3.4,6.9,7.9,8.8,12.8c1.9,4.9,2.8,10.2,2.8,15.5c-0.1,5.3-1.1,10.6-3.1,15.4
					C389.4,940.1,386.5,944.6,382.4,947.9z"/>
			</g>
			<g>
				<path class="st4" d="M396.2,972.4c-5.4-0.6-10.3-1.4-15.3-2c-4.9-0.6-9.8-1.1-14.7-1.5l-3.8-0.3c-1.3-0.2-2.6-0.3-4-0.6
					c-2.7-0.5-5.5-1.3-8.2-2.7c-2.6-1.4-5-3.4-6.6-5.8c-1.6-2.4-2.5-5.5-1.9-8.1c1.2,2.4,3,4.1,4.9,5.3c1.9,1.2,4,2.1,6.1,2.6
					c4.3,1,9,1,14.2,1.4c5.3,0.4,10.6,1.6,15.6,3.5C387.5,966,392.2,968.6,396.2,972.4z"/>
			</g>
			<g>
				<path class="st4" d="M1791.1,819.5c-6.2,7.2-10.5,15.7-13,24.5c-2.6,8.9-3.7,18.1-3.7,27.3c-0.1,18.5,3.9,36.9,6.2,55.9
					c2.4,19,3,37.9,5.3,56.5c1.2,9.3,2.8,18.5,5.3,27.5c2.5,9,6,17.7,10.7,26c-6.2-7.2-11-15.8-14.6-24.7
					c-3.6-8.9-6.1-18.3-7.9-27.8c-3.6-18.9-4.8-37.9-7.1-56.5c-1.1-9.3-2.6-18.7-3.6-28.2c-1-9.5-1.6-19.2-0.9-28.9
					c0.7-9.7,2.7-19.4,6.4-28.4C1778,833.8,1783.6,825.4,1791.1,819.5z"/>
			</g>
			<g>
				<path class="st4" d="M1772.7,968.5c-4.3-5.6-9.1-10-14.4-14.1c-5.2-4.1-10.8-8-16.2-12.4c-5.4-4.4-10.5-9.3-15-14.6
					c-1.1-1.3-2.3-2.7-3.3-4c-0.5-0.7-1.1-1.4-1.6-2.1c-0.6-0.7-1.1-1.6-1.6-2.4c-0.9-1.7-1.7-3.5-1.9-5.5c-0.1-1,0-2,0.3-3
					c0.4-0.9,1-1.7,1.7-2.2c-0.9,1.6-0.5,3.2,0.2,4.5c0.7,1.3,1.8,2.5,2.9,3.6c0.6,0.5,1.2,1,1.8,1.5l2,1.6l4,3.2l15.8,12.8
					c5.2,4.3,10.6,8.7,15.4,14.1c2.4,2.7,4.5,5.6,6.3,8.7C1770.8,961.6,1772.2,965,1772.7,968.5z"/>
			</g>
			<g>
				<path class="st4" d="M1761.7,880.5c-3.3-1.4-6-3.4-8.4-5.5c-2.4-2.1-4.6-4.4-6.6-6.9c-1.9-2.5-3.9-5.3-5.1-8.7
					c-0.6-1.7-1-3.5-1-5.4c0-1.9,0.4-3.8,1.5-5.3c1.5,3.3,3.3,5.3,5.2,7.5c1.9,2.1,4,4.2,6,6.8c2,2.5,3.7,5.2,5.2,8
					C1759.8,873.9,1761.1,876.9,1761.7,880.5z"/>
			</g>
			<g>
				<path class="st4" d="M1833.8,862.3c1.5,7.3,0.2,15.2-3.1,22.2c-1.6,3.5-3.8,6.8-6.3,9.8c-2.6,3-5.6,5.6-8.9,7.7
					c-0.8,0.6-1.7,1-2.6,1.5c-0.9,0.5-1.8,1-2.5,1.3c-1.6,0.7-2.9,1.4-3.6,2.1c-0.4,0.3-0.6,0.6-0.9,1c-0.2,0.4-0.5,0.9-0.6,1.6
					c-0.2,0.6-0.3,1.4-0.4,2.2c-0.1,0.8-0.2,1.7-0.3,2.6c-0.8,6.9-1.1,14-1.3,21.4c-3.2-6.7-4.8-14.1-5.2-21.6
					c-0.1-0.9-0.1-1.9-0.1-2.8c0-1,0-2,0.2-3.1c0.1-1.1,0.4-2.3,1-3.6c0.5-1.2,1.4-2.4,2.3-3.3c1.8-1.9,3.8-2.9,5.4-3.8
					c0.8-0.4,1.5-0.8,2.2-1.2c0.7-0.4,1.4-0.8,2.1-1.3c5.5-3.5,10.2-8.2,14.1-13.7C1829,875.7,1831.9,869.4,1833.8,862.3z"/>
			</g>
		</g>
		<g id="grass2">
			<g>
				<path class="st4" d="M938.9,944.9c-9.2-6.9-17-15.7-23.4-25.4c-6.4-9.8-11.3-20.5-14.4-31.8c-0.7-2.8-1.5-5.7-2.1-8.6
					c-0.5-2.9-1-5.8-1.3-8.8c-0.5-5.9-0.2-12.1,1.2-18c1.3-5.9,3.6-11.3,6.2-16.5c1.3-2.6,2.7-5.1,4.3-7.5c1.5-2.4,3.1-4.9,4.7-7.2
					c-3.4,11-7.5,21.6-8.8,32.4c-1.4,10.6,0.8,21.3,3.7,32c2.9,10.6,7,20.9,12.1,30.8C926.1,926.1,932.1,935.6,938.9,944.9z"/>
			</g>
			<g>
				<path class="st4" d="M905.8,899.4c-2.2,1.8-5,2.3-7.6,2.1c-2.7-0.2-5.2-1.2-7.4-2.8c-2.1-1.6-3.9-3.7-4.9-6.1
					c-1-2.4-1.4-5.2-0.3-7.9l10.1,7.3L905.8,899.4z"/>
			</g>
			<g>
				<path class="st4" d="M499,1050.4c-9.2-6.9-17-15.7-23.4-25.4c-6.4-9.8-11.3-20.5-14.4-31.8c-0.7-2.8-1.5-5.7-2.1-8.6
					c-0.5-2.9-1-5.8-1.3-8.8c-0.5-5.9-0.2-12.1,1.2-18c1.3-5.9,3.6-11.3,6.2-16.5c1.3-2.6,2.7-5.1,4.3-7.5c1.5-2.4,3.1-4.9,4.7-7.2
					c-3.4,11-7.5,21.6-8.8,32.4c-1.4,10.6,0.8,21.3,3.7,32c2.9,10.6,7,20.9,12.1,30.8C486.2,1031.7,492.3,1041.1,499,1050.4z"/>
			</g>
			<g>
				<path class="st4" d="M466,1005c-2.2,1.8-5,2.3-7.6,2.1c-2.7-0.2-5.2-1.2-7.4-2.8c-2.1-1.6-3.9-3.7-4.9-6.1
					c-1-2.4-1.4-5.2-0.3-7.9l10.1,7.3L466,1005z"/>
			</g>
			<g>
				<path class="st4" d="M744.9,1033.4c-4-6.1-5.5-13.7-5.4-21c0-7.4,1.6-14.6,3.7-21.4c2.1-6.8,4.9-13.3,7.6-19.6
					c1.4-3.2,2.7-6.1,3.4-9.3c0.7-3.1,0.9-6.4-0.7-9.7c1.5,1,2.7,2.6,3.5,4.3c0.8,1.8,1.2,3.7,1.3,5.6c0.3,3.8-0.4,7.6-1.3,11.1
					c-1.6,6.9-3.9,13.6-5.9,20.1c-2.1,6.5-4,12.9-5.1,19.5C744.7,1019.6,744.3,1026.3,744.9,1033.4z"/>
			</g>
			<g>
				<path class="st4" d="M746.4,992.6c-5.2-0.7-10-3-14.3-6c-4.2-3.1-7.9-7.1-10.7-11.5c-2.8-4.5-4.8-9.5-5.7-14.6
					c-0.9-5.2-0.9-10.5,0.8-15.5c1.8,4.9,3.5,9.3,5.5,13.6c1.9,4.2,4.1,8.3,6.5,12.1c2.4,3.9,5.1,7.6,8.1,11.2
					C739.5,985.4,742.8,988.8,746.4,992.6z"/>
			</g>
			<g>
				<path class="st4" d="M747.5,1020.6c1.4-5.2,4.1-9.9,7.3-14.2c3.2-4.2,7.2-8,11.5-11.1c4.2-3.1,8.3-5.5,11.4-8.6
					c1.5-1.5,2.9-3.3,3.8-5.4c1-2.1,1.6-4.4,1.4-7.1c1.9,2,2.7,5,2.6,8c-0.1,3-1.1,5.8-2.6,8.4c-1.5,2.6-3.5,4.7-5.6,6.5
					c-1,0.9-2.1,1.8-3.1,2.6l-3.1,2.3c-4,2.9-7.8,5.8-11.7,8.9C755.6,1014,751.8,1017.3,747.5,1020.6z"/>
			</g>
			<g>
				<path class="st4" d="M573.3,967.4c9.6-0.4,19.2,2.2,27.9,6.5c8.7,4.4,16.6,10.4,23.4,17.3c6.9,6.9,12.8,14.6,18.2,22.5
					c5.5,7.9,10.5,15.9,15.7,23.7c10.4,15.6,22,30.7,31.6,47.4c4.8,8.3,9.1,17,12.2,26.2c3.1,9.1,5.1,18.7,5.1,28.2
					c-1.9-9.3-4.9-18.3-8.9-26.7c-4-8.4-8.8-16.5-14-24.2c-10.4-15.6-22.3-30.3-32.9-46.2c-10.6-15.9-19.7-32.4-31.8-46.3
					c-6-6.9-12.9-13.2-20.7-18.2C591.5,972.4,582.7,968.8,573.3,967.4z"/>
			</g>
			<g>
				<path class="st4" d="M684.7,1068c-1.9-3-3.1-6.5-3.9-10c-0.7-3.5-1-7.2-1-10.7c0.1-7.2,1.3-14.1,2.4-20.7l3.5-20l0.9-5l0.5-2.5
					c0.2-0.8,0.3-1.5,0.4-2.3c0.2-1.6,0.2-3.1-0.1-4.6c-0.3-1.4-1.1-2.9-2.8-3.5c0.9-0.1,1.9,0,2.7,0.5c0.9,0.5,1.6,1.2,2.2,2
					c1.1,1.6,1.7,3.5,2.1,5.4c0.2,0.9,0.3,1.9,0.4,2.8c0.1,0.9,0.1,1.7,0.2,2.6c0.1,1.7,0.1,3.5,0.1,5.2c0,7-0.6,14-1.8,20.8
					c-1.2,6.9-2.9,13.4-4.1,20C685.1,1054.4,684.3,1060.9,684.7,1068z"/>
			</g>
			<g>
				<path class="st4" d="M635.4,994.2c-1.9-3.1-2.9-6.2-3.7-9.4c-0.8-3.1-1.2-6.3-1.3-9.5c-0.2-3.2,0-6.2,0.1-9c0-2.9,0.1-5.6-1-9
					c1.8,0.4,3.3,1.6,4.6,3c1.2,1.4,2.1,3.1,2.8,4.7c1.3,3.4,1.7,6.8,1.8,9.9c0.1,3.2,0,6.4-0.4,9.6
					C637.7,987.8,637,991,635.4,994.2z"/>
			</g>
			<g>
				<path class="st4" d="M569,1027.6c6.2,4.1,12.5,7,19,8.6c6.5,1.7,13.2,2.1,19.6,1.2c0.8-0.1,1.6-0.2,2.4-0.4
					c0.8-0.1,1.6-0.3,2.5-0.5c1.8-0.4,3.9-0.9,6.5-0.7c1.3,0.1,2.7,0.5,3.9,1c1.2,0.6,2.2,1.3,3.1,2.1c0.8,0.8,1.6,1.5,2.2,2.3
					c0.6,0.7,1.2,1.5,1.8,2.2c4.5,5.9,8.2,12.6,10.2,19.7c-5-5.4-9.8-10.6-15-15.3c-0.6-0.6-1.3-1.2-1.9-1.7c-0.6-0.5-1.2-1-1.8-1.4
					c-0.6-0.4-1.1-0.6-1.5-0.8c-0.4-0.1-0.8-0.2-1.3-0.2c-1,0-2.4,0.3-4.1,0.8c-0.8,0.2-1.8,0.5-2.8,0.7c-1,0.2-1.9,0.4-2.9,0.5
					c-3.9,0.5-7.9,0.5-11.8,0c-3.9-0.6-7.7-1.7-11.2-3.3C578.8,1039.2,572.6,1034.2,569,1027.6z"/>
			</g>
		</g>
		<g id="grass1">
			<g>
				<path class="st4" d="M1034.4,1071c-5-0.4-9.3,0.1-14.2-0.3c-2.4-0.2-5-0.5-7.6-1.4c-1.3-0.4-2.6-1-3.9-1.8
					c-0.6-0.4-1.2-0.8-1.8-1.3c-0.6-0.5-1.2-0.9-1.7-1.5c-0.5-0.5-1-1.1-1.4-1.7c-0.4-0.6-0.9-1.1-1.2-1.7c-0.7-1.2-1.3-2.4-1.8-3.5
					c-1-2.4-1.7-4.6-2.4-6.8c-0.6-2.2-1.2-4.3-2.1-6.2c-0.8-2-1.9-3.8-3.8-5.5c2.5-0.1,5.1,1.3,7.1,3c2,1.8,3.5,4,4.8,6
					c2.5,4.2,4.4,8.2,6.8,10.6c1.2,1.2,2.6,2.2,4.4,3.1c1.7,0.9,3.8,1.6,5.9,2.3c2.2,0.7,4.5,1.5,6.7,2.5
					C1030.4,1067.9,1032.6,1069.2,1034.4,1071z"/>
			</g>
			<g>
				<path class="st4" d="M1243.6,867.4c2.8-18.7,6.5-37.3,10.4-55.7c2-9.2,4-18.4,6.1-27.6l1.6-6.9c0.6-2.3,1-4.5,1.7-7.1
					c0.7-2.5,1.8-5.3,3.9-7.8c2.1-2.5,4.8-4.1,7.1-5.2c2.4-1.1,4.6-1.9,6.5-2.7c0.9-0.4,1.8-1,2.6-1.4c0.4-0.3,0.8-0.6,1.2-0.9
					c0.4-0.3,0.8-0.6,1.2-0.9c3.1-2.5,5.7-5.9,7.8-9.7c2.1-3.8,3.7-8,5.2-12.3c1.4-4.3,2.6-8.8,3.7-13.4c2.3-9.1,4.4-18.1,5.1-27.3
					c0.8-9.1-0.2-18.6-4.2-27.2c0.7,1,1.3,2,2,3c0.6,1,1.1,2.1,1.7,3.2c0.5,1.1,0.9,2.2,1.4,3.3c0.4,1.1,0.8,2.3,1.1,3.4
					c1.3,4.7,1.9,9.5,2.1,14.3c0.3,9.7-1.1,19.3-2.8,28.6c-0.9,4.7-1.8,9.4-3.1,14.1c-1.3,4.7-2.9,9.4-5.2,13.9
					c-2.3,4.5-5.4,8.9-9.6,12.4c-0.5,0.5-1.1,0.8-1.6,1.2c-0.6,0.4-1.1,0.8-1.7,1.2c-1.2,0.7-2.3,1.4-3.6,1.9
					c-2.4,1.1-4.6,1.9-6.5,2.8c-1.9,0.9-3.3,1.8-4.3,2.9c-1,1.1-1.7,2.8-2.4,4.8c-0.6,2-1.2,4.4-1.8,6.6l-1.8,6.8
					c-2.4,9.1-4.9,18.2-7.4,27.3C1255.2,831.4,1249.8,849.5,1243.6,867.4z"/>
			</g>
			<g>
				<path class="st4" d="M1260.3,752.5c0.4-6.9-0.3-13.2-2-19.2c-1.7-5.9-4.5-11.4-8.2-16.1c-3.6-4.6-8.8-8.4-13.8-13.4
					c-2.4-2.5-4.7-5.4-6.3-8.6c-1.6-3.2-2.5-6.9-1.9-10.4c1.3,3.2,3.1,5.8,5.3,8.1c2.2,2.3,4.6,4.2,7.2,6c2.6,1.8,5.4,3.7,8.2,5.7
					c1.4,1,2.7,2.2,4.1,3.4c0.7,0.6,1.3,1.3,1.9,2c0.6,0.7,1.3,1.4,1.8,2.1c4.6,5.8,7.4,12.9,8.1,20.1
					C1265.4,739.3,1264,746.7,1260.3,752.5z"/>
			</g>
			<g>
				<path class="st4" d="M854.2,850.3c-2.3-6.9-1.9-14.6,0-21.7c1.8-7.1,5.2-13.8,8.9-19.8c3.8-6.1,8.1-11.6,12.3-17.1
					c2.1-2.7,4.1-5.3,5.6-8.2c1.5-2.8,2.5-6,1.7-9.5c1.2,1.3,2,3.2,2.3,5.1c0.3,1.9,0.2,3.9-0.1,5.8c-0.7,3.8-2.3,7.3-4,10.4
					c-3.3,6.3-7.1,12.2-10.7,17.9c-3.6,5.8-7.1,11.5-9.8,17.6C857.5,836.8,855.4,843.2,854.2,850.3z"/>
			</g>
			<g>
				<path class="st4" d="M865.9,811.1c-4.9-1.9-9-5.4-12.3-9.4c-3.3-4.1-5.9-8.8-7.5-13.8c-1.6-5-2.3-10.4-1.9-15.6
					c0.4-5.2,1.8-10.4,4.6-14.8c0.5,5.2,1,9.9,1.9,14.5c0.8,4.6,1.9,9,3.3,13.4c1.4,4.4,3,8.6,5,12.8
					C861,802.4,863.4,806.6,865.9,811.1z"/>
			</g>
			<g>
				<path class="st4" d="M860,838.5c2.7-4.7,6.4-8.6,10.6-11.9c4.2-3.3,9-6,13.9-7.9c4.9-1.9,9.4-3.2,13.2-5.5
					c1.9-1.1,3.6-2.5,5.1-4.3c1.5-1.7,2.6-3.8,3.1-6.5c1.4,2.4,1.4,5.6,0.5,8.4c-0.9,2.8-2.5,5.4-4.6,7.5c-2.1,2.1-4.6,3.7-7,4.9
					c-1.2,0.6-2.5,1.2-3.7,1.7l-3.6,1.5c-4.6,1.8-9,3.7-13.6,5.7C869.4,834.2,864.9,836.4,860,838.5z"/>
			</g>
			<g>
				<path class="st4" d="M616.3,793.4c9.4,2,18.1,6.9,25.4,13.3c7.4,6.4,13.4,14.2,18.4,22.6c4.9,8.4,8.7,17.4,12,26.3
					c3.3,9,6.2,18,9.3,26.9c6.2,17.7,13.6,35.2,18.7,53.8c2.5,9.3,4.5,18.7,5.3,28.4c0.7,9.6,0.3,19.4-2.1,28.6
					c0.5-9.5-0.1-18.9-1.9-28.1c-1.7-9.2-4.4-18.1-7.5-27c-6.1-17.7-14-34.9-20.3-53c-6.3-18.1-11-36.3-19.2-52.8
					c-4.1-8.2-9.2-16-15.5-22.8C632.7,802.8,625.1,797.1,616.3,793.4z"/>
			</g>
			<g>
				<path class="st4" d="M699,918.7c-1.1-3.4-1.4-7-1.2-10.6c0.2-3.6,0.8-7.2,1.8-10.6c1.9-6.9,4.8-13.3,7.5-19.5l8.4-18.5l2.2-4.6
					l1.1-2.3c0.4-0.7,0.7-1.4,0.9-2.1c0.6-1.5,1-3,1-4.5c0-1.5-0.4-3.1-1.9-4.1c0.9,0.1,1.8,0.5,2.5,1.2c0.7,0.7,1.3,1.6,1.6,2.5
					c0.7,1.9,0.8,3.8,0.7,5.7c-0.1,0.9-0.2,1.9-0.4,2.8c-0.2,0.9-0.3,1.7-0.5,2.6c-0.4,1.7-0.8,3.4-1.2,5.1
					c-1.8,6.8-4.1,13.4-7,19.7c-2.9,6.4-6.1,12.3-9,18.3C702.8,905.6,700.4,911.7,699,918.7z"/>
			</g>
			<g>
				<path class="st4" d="M669.8,834.9c-1-3.5-1.3-6.7-1.2-10c0.1-3.2,0.4-6.4,1.1-9.5c0.7-3.2,1.6-6,2.3-8.7c0.7-2.8,1.5-5.4,1.3-9
					c1.6,0.9,2.8,2.4,3.7,4c0.8,1.7,1.3,3.5,1.5,5.3c0.4,3.6-0.1,7-0.7,10.1c-0.7,3.1-1.6,6.2-2.8,9.1
					C673.6,829.2,672.1,832.2,669.8,834.9z"/>
			</g>
			<g>
				<path class="st4" d="M597,850.7c4.9,5.5,10.3,9.9,16.2,13.1c5.9,3.3,12.3,5.3,18.7,6.1c0.8,0.1,1.6,0.2,2.4,0.2
					c0.8,0.1,1.6,0.1,2.5,0.1c1.8,0.1,4,0.1,6.5,1c1.2,0.4,2.5,1.1,3.5,2c1,0.9,1.8,1.8,2.4,2.8c0.6,0.9,1.1,1.9,1.6,2.7
					c0.4,0.9,0.8,1.7,1.2,2.6c2.9,6.9,4.8,14.2,4.9,21.6c-3.5-6.5-6.8-12.7-10.7-18.6c-0.5-0.7-1-1.5-1.4-2.2
					c-0.5-0.7-0.9-1.3-1.4-1.8c-0.4-0.5-0.9-0.9-1.3-1.1c-0.4-0.2-0.7-0.4-1.2-0.5c-1-0.2-2.4-0.3-4.2-0.3c-0.9,0-1.9,0-2.9-0.1
					c-1,0-2-0.1-3-0.2c-3.9-0.5-7.8-1.5-11.4-3c-3.6-1.5-7-3.5-10-5.9C603.6,864.3,598.9,857.9,597,850.7z"/>
			</g>
			<g>
				<path class="st4" d="M503.6,926.6c-2.3-6.9-1.9-14.6,0-21.7c1.8-7.1,5.2-13.8,8.9-19.8c3.8-6.1,8.1-11.6,12.3-17.1
					c2.1-2.7,4.1-5.3,5.6-8.2c1.5-2.8,2.5-6,1.7-9.5c1.2,1.3,2,3.2,2.3,5.1c0.3,1.9,0.2,3.9-0.1,5.8c-0.7,3.8-2.3,7.3-4,10.4
					c-3.3,6.3-7.1,12.2-10.7,17.9c-3.6,5.8-7.1,11.5-9.8,17.6C506.9,913.2,504.8,919.5,503.6,926.6z"/>
			</g>
			<g>
				<path class="st4" d="M515.2,887.4c-4.9-1.9-9-5.4-12.3-9.4c-3.3-4.1-5.9-8.8-7.5-13.8c-1.6-5-2.3-10.4-1.9-15.6
					c0.4-5.2,1.8-10.4,4.6-14.8c0.5,5.2,1,9.9,1.9,14.5c0.8,4.6,1.9,9,3.3,13.4c1.4,4.4,3,8.6,5,12.8
					C510.4,878.7,512.7,882.9,515.2,887.4z"/>
			</g>
			<g>
				<path class="st4" d="M509.3,914.8c2.7-4.7,6.4-8.6,10.6-11.9c4.2-3.3,9-6,13.9-7.9c4.9-1.9,9.4-3.2,13.2-5.5
					c1.9-1.1,3.6-2.5,5.1-4.3c1.5-1.7,2.6-3.8,3.1-6.5c1.4,2.4,1.4,5.6,0.5,8.4c-0.9,2.8-2.5,5.4-4.6,7.5c-2.1,2.1-4.6,3.7-7,4.9
					c-1.2,0.6-2.5,1.2-3.7,1.7l-3.6,1.5c-4.6,1.8-9,3.7-13.6,5.7C518.8,910.5,514.3,912.7,509.3,914.8z"/>
			</g>
		</g>
	</g>
	<g id="flowers" class="st0">
		<g id="flowers16">
			<path class="st5" d="M1651.2,569.8L1651.2,569.8c0.8,4.8,1.8,12.1,1.8,20.8c0.1,12.7-1.9,21.3-4.5,34.5
				c-8.5,43-5.6,39.3-8.4,44.7c-7.8,15.3-23.3,29.7-22.6,39.7c0.1,0.9,0.2,3.6,2.2,5.4c2.5,2.4,7.1,2.3,10.1,0.7
				c3.9-2.1,4.7-6.7,5.9-11.6c2.6-10.1,0.9,2.4,8.6-23c5.8-19.1,10.2-37.7,14.4-54.8c7.3-29.8,9.9-39.6,8-54.8
				c-0.5-4.3-2.4-18.9-7.9-19.7c-3-0.4-6,3.4-8.1,6.6L1651.2,569.8z"/>
			<path class="st6" d="M1636.5,501.2c-36.9-4.5-67.6-35.7-63.2-47.3c1.6-4.3,6.9-2.7,17.9-12.1c8.5-7.2,8.1-10.4,14.3-13.4
				c8.7-4.2,12.3,0.7,21.8-2.5c11.4-3.9,10.2-12.2,21.1-16.6c9.6-3.8,12.2,2.1,28,0.7c17.4-1.5,23.7-9.4,30.4-5.1
				c5.4,3.5,6,11.7,6.3,16.9c0.7,9.8-2.8,13.3-6.8,29.6c-3.8,15.5-1.4,15.5-4.5,21.8c-6.2,12.8-18.7,18.7-25.3,21.8
				C1660.2,502.7,1644.6,502.2,1636.5,501.2z"/>
			<path class="st6" d="M1657.3,540.8c-11.9,1.3-29.1-38.2-28-73.7c0.3-10.5,1.1-27.5,12.2-35.2c5.4-3.7,7.2-1.1,23.3-7.8
				c6.8-2.8,11.3-5.3,17-3.8c1.4,0.4,5.8,1.8,8.2,5.5c4.2,6.6-0.9,16.3-4,23.6c-7.3,16.9-1.4,14.8-10.1,46.5
				C1667.7,525.4,1663.7,540.1,1657.3,540.8z"/>
			<path class="st7" d="M1682.6,525.2c6.9,0.9,16.2-25,19.5-37c2.4-8.5,3.6-16.1,4.1-19.7c3-19.8-0.2-21.1,3.1-32.4
				c3.4-11.2,8.1-15.4,5.9-22.7c-0.2-0.7-2.3-7.1-7.3-8.5c-8.2-2.3-17.6,10.6-18.8,12.2c-5.7,7.9-6,14.4-9.1,33
				c-4.5,26.8-5.6,23.7-6.1,33.1C1673,500.5,1676.2,524.4,1682.6,525.2z"/>
			<path class="st7" d="M1660,576.1c-6,0.9-11.7-3-18.4-7.7c-2.7-1.9-8.8-6.5-15.1-15.8c-7.1-10.5-9.8-20.1-10.9-23.5
				c-11.4-36.4-52.3-50.3-46.8-68.8c1.7-5.7,7.3-10.1,11.6-11.9c7.8-3.3,11.5,1.4,20.6,0.4c15.7-1.7,17.5-17.1,33.5-18.8
				c6.9-0.7,12.3,1.6,18.3,4.1c11.4,4.8,18.2,12.5,24.5,19.6c6.1,6.9,9.8,11,12.6,17.8c4.2,10.3,3.4,19.2,2,31.8
				c-0.4,3.9-2.1,17.8-9.9,38.2C1674.1,562.1,1669.3,574.6,1660,576.1z"/>
		</g>
		<g id="flowers15">
			<path class="st6" d="M857.6,790.7c-3-2.9-0.7-9.7,2.7-19.7c2-5.8,7.2-20.2,20.9-28.8c4-2.5,7-4.3,10.3-3.4
				c7.3,1.9,11.4,15.5,9.4,25.5C896.9,785.2,864.3,797.2,857.6,790.7z"/>
			<path class="st6" d="M959.4,748.2c-3.8-5.5-11.2-16.2-8.8-29.3c0.4-2.2,2.6-13,11.8-19.3c11.4-7.8,19.7,0.6,34.2-6.1
				c12.6-5.9,10.6-14.2,21.5-17.5c6.7-2.1,10.9,0.1,35.9,8.8c19.1,6.6,28.6,9.9,32.6,10.4c22.4,2.9,34.7-6.2,39.8,0.2
				c4,5-0.3,14.7-3.6,21.8c-7.2,16.1-18.6,25.7-23.2,29.3c-22.3,17.9-43.8,35-75.3,34.2C999.3,779.9,973.1,768.2,959.4,748.2z"/>
			<path class="st7" d="M962.9,739c-7.7-2.9-12.6-8.5-12.3-13.6c0.5-7.3,12-10.9,14.8-11.8c14.6-4.6,20.1,4.2,36.9,2.6
				c13.5-1.3,12.7-7.3,30.7-10.5c9.9-1.8,23.6-4.3,31.5,3.5c6.1,6,5.8,15.1,5.7,20.6c-0.4,17.3-10.7,29.7-18.1,38.3
				c-10.4,12.2-20,23.5-32.7,25.2C999.3,795.8,975.1,774.1,962.9,739z"/>
			<path class="st6" d="M995.9,901.3c18.1-2.9,28.2-21.7,32.7-30.2c13.7-25.5,1.6-33.5,13.5-64.3c9.1-23.6,20.5-30.1,19.7-50.4
				c-0.2-5.2-0.7-16.5-8.6-24.1c-7.1-6.8-15.8-6.2-37-7.5c-19.6-1.2-29.4-1.8-40-3.9c-29.6-5.7-34.1-16.4-55-15
				c-6.5,0.5-21,1.5-29.4,12.3c-8.8,11.4-5.4,26.7-4.1,32.8c3.5,16.2,11.5,20,22,37.8c11,18.5,5.7,20.1,18.4,49.5
				c9.7,22.4,16.5,37.7,32.4,49.9C968,893.9,980.8,903.8,995.9,901.3z"/>
			<path class="st7" d="M856,785.8c0.1-3.2,6.8-6.7,20.1-13.6c12.2-6.3,16.1-6.9,21.9-12.3c6.6-6.2,6.1-9.8,10.5-14.5
				c10.1-10.6,32.9-12.8,45.5-4.8c17.1,10.8,5.5,34,17.1,79.3c11.9,46.7,36.9,71.7,28.1,80.4c-3.7,3.6-13.3,1.3-32.5-3.3
				c-18-4.3-27-6.5-33-12.2c-11.1-10.5-5.2-20-16.9-44.2c-3.4-7.1-8.9-18.4-19.7-28.6C877.5,793.5,855.7,793.3,856,785.8z"/>
			<path class="st7" d="M1024,882.5c10.4,5.3,28.7-5.8,37.9-17.5c11.2-14.2,5.2-24.4,16.6-56.1c4.5-12.6,9.5-22.2,15.3-33.3
				c8.4-16.2,13.3-22.5,22.1-39.7c11-21.5,14.1-23.7,12.5-26.9c-4.1-7.9-25.1-4.4-58.7,1.3c-28.6,4.8-33,8.2-35.2,10.1
				c-12.6,11.1-11.3,28.4-11.7,58.2C1021.9,853.1,1011.8,876.3,1024,882.5z"/>
			<path class="st5" d="M1000.9,912c0.9,11.4,2.9,13.8,4,24.9c1,9.9,0.3,17.3-0.4,25.4c-1.2,12.8-3,18.6-7,37.2
				c-8.5,39.6-5.7,38.3-9.6,44.2c-7.9,11.8-18.3,15.6-23.2,31.4c-1.4,4.5-1.8,8.2,0,11.1c3.6,5.7,14.9,6.7,21.2,2.2
				c4.7-3.3,5.1-8.4,7.6-18.9c3.5-14.7,3.9-9.3,9.7-30.6c0.9-3.5,5.3-19.6,9.2-42c1.8-10.7,3.4-19.7,4.4-32
				c1.8-21.8-0.9-20.3,0.9-37.7c1.9-18.6,5.6-26,0.4-33.9c-3.4-5.1-9.8-9.4-13.5-7.7C999,888,1000.2,902.4,1000.9,912z"/>
			<path class="st5" d="M990,899.2c-0.7,6.3,4.1,11.7,4.9,12.6c4.8,5.3,12.8,8.3,20,6.1c8.8-2.6,11.9-11.6,14-17.5
				c1.6-4.5,5.1-14.5,0.9-18.8C1022.4,874.1,991.6,884.4,990,899.2z"/>
		</g>
		<g id="flowers14">
			<path class="st6" d="M1605.1,768.9c0,0-10.1-8.5-49.3-35.7c-27.1-18.8-41.8-14.9-47.6-30.1c-3-7.8-2.5-17.7,2.1-24.8
				c10.7-16.3,40.5-13.1,50.4-12.1c13.9,1.5,13.1,4.4,24.8,4.8c19,0.5,23.4-7.2,43.1-8.2c7.4-0.4,28.5-1.5,34,8.6
				c1.6,2.9,2.1,7.3-12.8,36c-15.3,29.6-16.6,26.6-20.9,39.1c-5,14.6-5.5,25.3-12.1,27.1C1612.1,774.9,1607.3,770.8,1605.1,768.9z"
				/>
			<path class="st6" d="M1610.5,763.1c-1.6-3.4-2.1-10.6,36-50.2c25.6-26.6,31.8-29.6,38.9-30.3c11.4-1.2,20.1,4,35.5,13.3
				c19.6,11.8,32.9,19.8,35.9,35c3,15.3-5.4,32.3-17.4,41c-3.2,2.3-7.7,4.8-56.4,5c-8.5,0-29.1,0-54.7-5.8
				C1614.8,767.9,1611.9,765.9,1610.5,763.1z"/>
			<path class="st7" d="M1615.9,755c-4.9-0.1-18.6-0.1-33.9,6.2c-7.2,3-15,6.2-15.6,11.5c-0.2,1.8,0.1,7.4,25,21.1
				c11.4,6.3,22.7,12.8,39.9,17.7c3.6,1,15.4,2.6,39,5.8c12.3,1.7,20.2,2.6,28.8-1.4c3.6-1.7,9.6-4.5,11.2-9.7
				c3.9-13.1-23.1-31.2-27.2-33.9C1658,755.8,1632.4,755.3,1615.9,755z"/>
			<path class="st7" d="M1604,766.4c-18.9-7.7-46.8-46.9-94.8-52.5c-10.4-1.2-21.3-2.3-30.1,4.1c-7.2,5.3-7,11.2-17,18.7
				c-9.3,6.9-14.6,5.7-16.3,10.3c-2.7,7.5,7.7,19.2,17.4,25.8c11,7.4,23.5,8.9,48.2,11.6c19.3,2.1,20.1,0.5,31.2,3.2
				c17.8,4.3,20.1,9.4,29.3,7.5c9.7-2,8.4-8,27-17.2c4.4-2.2,10.1-4.6,9.8-7.5C1608.5,768.2,1605,766.8,1604,766.4z"/>
		</g>
		<g id="flowers13">
			<path class="st6" d="M1229.8,489.5c1.1,0.9,6.8,3.4,18.2,8.4c12.7,5.6,15.1,6,17.2,6.2c8.9,0.5,16.2-4.7,22.5-9.9
				c19-15.7,30.6-32.7,40.9-46.7c11-15,21.7-20.6,28.2-36c2.5-6,3.9-11.6,4.2-17.6c0.1-1.6,0.5-15.2-6-25.1
				c-7-10.8-16.4-8.6-54.6-21.1c-22.4-7.3-33.6-11-39.9-16.1c-7.3-5.9-12.7-13-20.8-12.3c-6.4,0.5-10.9,5.6-14.2,9.5
				c-4,4.7-10.7,14.2-12.6,32.4c-1.1,10.2,0.3,14.9,3.9,39.1c3.3,22,4.9,32.9,5.6,40.8C1224.9,471,1221,482.1,1229.8,489.5z"/>
			<path class="st7" d="M1237.9,514.3c-11-4.1-11.2-16.3-23.1-35.3c-14.5-23.3-22.2-17.5-31.8-36.4c-7.7-15.1-1-15.2-10.5-54
				c-3.6-14.6-6.5-22.7-1.9-28.4c4.8-5.9,11.3-1.6,24.1-7.5c6.9-3.2,6.7-5.3,25.4-20.9c9-7.5,13.5-11.3,16-11.9
				c2.9-0.7,13-2.2,40.5,23.1c15.1,13.9,22.7,20.8,28.2,30.2c25.4,43.3-2.3,114-41.4,136.1C1258.2,512.2,1247.7,517.9,1237.9,514.3z
				"/>
			<path class="st7" d="M1230.6,495.8c-1,3.7-2.7,10.7,0.8,16.6c4.5,7.6,15.1,9.3,18.6,9.8c5.9,0.9,10.2,0.2,16.6-0.8
				c25.6-4,22.5-2.3,30.2-4.3c13.6-3.3,22.6-8.5,36.8-16.6c20.7-11.8,17.7-13.9,31.3-19.8c13.8-6,21.2-5.7,27.3-13.7
				c3.4-4.5,7.7-13.2,4.6-19.6c-3.7-7.5-13.6-3.7-24.1-13c-7.6-6.7-10.3-15.6-11.7-20.1c-3.8-12.4,0.4-15.7-2.9-23.1
				c-5.8-12.9-25.6-18.1-39.6-17.4c-3,0.1-16.3,1-35.1,14.9C1252.7,411.4,1244.9,441.1,1230.6,495.8z"/>
			<path class="st5" d="M1233.8,521.1c2.2,7.7,0.4,14.1-1.5,21.6c-8.8,34-5.4,34.5-15.2,62.6c-21.1,60.8-27.6,59.4-29.6,80.3
				c-2,21.4-2.5,59.4,15.4,67.3c9.1,4.1,22.3,0.1,24.5-6.1c2.6-7.3-11.3-13.8-18.5-31c-6.2-15-3.6-29.4-2.7-34.7
				c0.8-4.5,2-8.9,10.1-27.2c11.1-25.1,11.4-22.6,15.3-32.8c5.5-14.1,12-31.2,11.7-52.7c-0.1-8.3-1.3-14.1,1.5-22.8
				c1.2-3.7,5.1-16.3,15.7-20.9c5.1-2.2,8.7-1.2,9.1-2.8c0.9-4-23.8-11.3-25.3-11.7c-10.6-3.1-12.9-2.4-13.7-1.2
				C1228.8,511.2,1232.1,514.9,1233.8,521.1z"/>
			<path class="st5" d="M1224.1,488.4c-3.9,2.5-1.5,12.7,2.7,19.5c5.9,9.7,16.1,13.3,19.2,14.5c2,0.7,10.5,3.6,20.9,1.9
				c3.9-0.6,12.6-2.1,13.6-6.4c0.9-3.8-4.7-8-8.5-10.8c-9.6-7.2-15.1-6.1-31.8-13.1C1229.8,489.5,1226.5,486.9,1224.1,488.4z"/>
		</g>
		<g id="flowers12">
			<path class="st5" d="M1205.8,781.3c0,0,60.1,299.8,34.9,346.5h22.4c0,0-28.7-334.7-47-349.4
				C1210.1,773.8,1205.8,781.3,1205.8,781.3z"/>
			<path class="st5" d="M1190.2,764c-1.8,3.4,3.2,15.7,7.7,17.5c4.3,1.6,15.9-0.4,18.5-2.2c3.1-2.1,4.6-4.6,5.4-6.5
				c0.6-1.6,0.4-3.3-0.7-4.6l-5.5-7.1C1215.6,761,1193.8,757.2,1190.2,764z"/>
			<path class="st7" d="M1257.2,574.4c0,0,38.3-5.7,31.5,6.1c-6.8,11.8-31.5,5.8-31.5,5.8V574.4z"/>
			<path class="st6" d="M1139.3,575.4c0,0,29.6-22.4,36.1-19.9c6.4,2.5,32.7,12,44.1,13.1s46.8,4.4,43.7,11s-10.2,12-10.2,12
				s-13.9,14-32.3,12.6C1207,603.2,1139.3,575.4,1139.3,575.4z"/>
			<path class="st6" d="M1163.6,581.9c0,0,27.8-9.9,34-5.4s8.7,20.5,5.8,23.6C1200.4,603.2,1163.6,581.9,1163.6,581.9z"/>
			<path class="st6" d="M1085.2,612.3c-0.7,0.2-1.1-0.7-0.5-1.2c8.4-6.4,35.3-27.5,36.2-35.1c1.1-9.1,74.4,6.4,64.4,19.7
				c-9.9,13.3-17.8,13.6-15.1,35.3c0.3,2.4-36.8,0.8-59.3-2.1C1090.3,626.2,1093.5,610.3,1085.2,612.3z"/>
			<path class="st7" d="M1166.8,626.8c-0.5-1.1-1.9-5.5-4.9-8.1c-16.5-14.2-61.1,16.3-70.1-3.2c-8.5-18.5-53.7,9.4-49.8,17.7
				c0.7,1.6,5.9,1.9,8.7,2.2c18.6,1.7,29.6,21.3,56.6,59.1c35.2,49.2,42.5,59.5,61.9,68.5c6.9,3.2,37.4,0.3,44-0.4
				c0.6-0.1,1-0.8,0.7-1.3c-4.4-7.7-21.8-7.6-16.8-56c2.7-25.9-16.8-16.3-25.4-40.9C1167.6,652.7,1170.9,638.4,1166.8,626.8z"/>
			<path class="st7" d="M1213.5,762.8c0.6-0.1,1.2-0.4,1.5-1c1.9-2.7,8.3-11.6,10-14.5c1.9-3.3,31.7-39.2,31.1-49.1
				c-0.6-9.9,19.3-28.6,15.5-41.6s6.6-62.1,17.4-71.5c13.8-12.1-27.4-3.7-34.2,3.7c-6.8,7.5-34.2,12.4-34.2,12.4s-27.4-9.9-35.4-5.6
				s-26.7,20.5-14.3,68.4c6.4,24.8,25.5,13.1,25.5,41.6C1196.4,733.8,1192.2,766,1213.5,762.8z"/>
		</g>
		<g id="flowers11">
			<path class="st7" d="M1423.1,679c-7.2-1.2-31.3-39.1-32.8-43.3c-4.8-13.3-4.3-19.7-11.9-36c-3.2-6.8-5.1-9.5-9.7-19.6
				c-5-11-4.6-11.9-10.1-24.8c-5.1-12.1-9.6-21.3-13.4-36c-1.8-7-2.3-10.7-0.2-13.2c3-3.5,9.5-2.6,20.5-0.8
				c15.2,2.4,16.5,5.2,24.5,4.2c4.1-0.5,8.3-1.7,16.1-4.1c8.1-2.5,8.7-3.2,11.7-3.2c5.2,0,8.5,2.2,17,7.1c1.3,0.7,10.5,6,16.1,8.7
				c17.7,8.6,24.5,4.3,29.4,10.9c3,4,0.7,5.9,0.3,26.1c-0.3,15.2,0.9,19.5-0.9,31.5c-1.4,9.8-3.2,14.1-5.8,17.6
				c-3.8,5.3-6.3,4.8-9.5,9.7c-4.8,7.2-2.1,12.4-4.5,21.8c-1.7,6.7-5.4,11.4-12.7,20.7c-7.3,9.3-9.1,13.3-13.5,16.8
				C1429,676.7,1426.4,679.5,1423.1,679z"/>
			<path class="st7" d="M1443.3,671.2c11.2-3.4,28.6-6.5,47.5-24.2c1.6-1.5-0.3,0.1,20.2-30.8c11.3-17.1,12.9-19.1,14.9-21.4
				c7.1-8.2,10.7-10.1,14.1-17.4c3.2-6.9,1.7-8.9,5.2-16.5c2.1-4.4,5.4-11.7,11.6-15.5c12.4-7.7,34.4-0.3,35.9,8.4
				c1.1,6.4-9.4,9.8-26.9,24.6c-12,10-23.8,24.6-47.4,53.8c-9.3,11.5-20,25.2-33.2,35.8c-8.5,6.8-8.8,5-18.9,13.1
				c-5.6,4.5-9.3,8.1-13.8,7.3c-3.9-0.7-6.3-4.3-7-5.3C1442.8,678.8,1440.8,672,1443.3,671.2z"/>
			<path class="st6" d="M1482,529.8c2.8-3.5,6.8-4.7,11.8-6.2c7.5-2.2,13.6-1.6,20.8-0.8c7.6,0.8,11.4,1.3,15.9,3.9
				c5.2,3,4.7,5.2,9.8,7.7c5.2,2.6,10.4,2.6,15.3,2.6c7.6,0,11.7-1.6,14.4,1.2c0.1,0.2,1.9,2,1.3,3.6c-1.1,2.8-8.4-0.5-14.9,2.6
				c-10.5,4.9-13.4,23.8-13.8,26.1c-0.3,2.1-0.5,4.3-1.8,7.4c-2,4.7-4.9,7.2-8.5,10.8c-3.6,3.7-6.7,7.8-10.2,11.6
				c-12,13-18.3,31.3-30,45.2c-18.5,21.8-48.1,29.8-51.3,25.5c-1.6-2.1,2.2-7.9,6.3-14.2c6-9.3,8.5-8.5,11.1-14.4
				c3.9-9-1.2-12.7,3.4-22.3c1.7-3.6,4.1-6.6,6.9-9.9c4.6-5.7,6.4-6.3,8.6-9.6c2.7-4,3.3-7.9,3.7-17.8c0.5-12,0.8-17.9,0.2-28.3
				C1479.9,538.7,1478.4,534.3,1482,529.8z"/>
			<path class="st7" d="M1347.3,503.6c-1-2.8,5.3-8.2,11.6-11c8.1-3.6,11.8-0.9,22.3-2.5c11.9-1.8,12.3-6.1,24.6-8.9
				c9.1-2.1,16-1.5,25.8-0.6c18.7,1.7,16.9,5.9,37.9,8.8c11.1,1.6,18.9,1.4,22.2,7c2.3,4,0.5,7.7,4,11c3.5,3.3,7.2,1.3,11.2,5
				c3,2.8,4.9,7.4,3.4,9.4c-1,1.3-2.9,0.6-8.5,0.6c-6.6,0-10.7,0-14.3,2.4c-3.4,2.3-3,4.6-5.6,5.1c-3.3,0.7-5-2.8-10.5-5.5
				c-4.8-2.3-6-0.9-12.6-2.6c-4-1-7.9-3.2-15.8-7.5c-5.5-3-7.6-4.5-15.3-8.6c-4.2-2.3-6.4-3.4-7.3-3.6c-4.7-1.1-8,0.4-19.4,4.3
				c-6.9,2.3-10.3,3.5-11.2,3.6c-7.8,1.1-10.7-1.9-21.3-3.8C1355,503.7,1348.2,506.3,1347.3,503.6z"/>
			<path class="st6" d="M1426.3,478.8c0.8-1.9,4.6-2.4,18.8-1.2c12.8,1.1,19.9,1.7,32.9,4.2c13.7,2.6,20.8,4,29.5,7.6
				c6.8,2.9,11.1,4.6,16.2,8.5c7.1,5.3,9.3,9.7,18,14.2c1.9,1,4.2,1.9,8.8,3.6c12.7,4.8,14.5,4.3,22.3,7.6
				c7.6,3.2,13.3,5.7,17.6,11.7c3.2,4.5,3.9,8.6,4,10.7c0.2,3.3-0.2,8.6-2.2,9.1c-2.6,0.6-3.9-8.5-11.2-11c-4.9-1.7-9.5,0.7-11-1.7
				c-1.2-1.9,1.1-4.2,0-5.7c-1.4-1.8-5.5,0.5-12.5,1c-2.6,0.2-7.1,0.4-12-1.3c-2.8-1-2.9-1.7-11.4-6.9c-4.1-2.5-6.1-3.7-7.2-4.2
				c-6.2-2.6-9.7-1.3-15.6-2.4c-2-0.4-5-1.1-14.2-6.5c-15.1-8.9-14.6-11.3-25.1-17.2c-12-6.7-18.2-10.1-26.7-9.7
				c-3.5,0.2-7.5,1-12-1.3C1429.1,485.8,1425.2,481.2,1426.3,478.8z"/>
			<path class="st5" d="M1422,674.3c-2,2.7-1.1,7.1-0.5,9.8c0.4,1.8,0.9,4.2,2.8,6.6c2.8,3.4,6.5,4.3,8.3,4.7c2.1,0.5,5.6,1.3,9-0.2
				c1.7-0.8,1.7-1.3,6.7-6.4c3.7-3.7,4.2-3.9,4.3-4.8c0.4-3.9-7.5-8-12.6-9.8C1437.9,673.4,1425.9,669.2,1422,674.3z"/>
			<path class="st5" d="M1348.1,858.2c-3.2-9.8,17-19.6,30.6-42.1c3.1-5.2,1.4-3.5,13-35c12.3-33.3,12.7-31,16.8-44.6
				c7-23.7,10.6-35.6,10-49.3c-0.4-9.7-2.1-14.8,1.5-18.5c8.2-8.4,35.1-0.3,36.5,9.7c0.7,4.7-4.2,10.2-9.3,16
				c-4.1,4.7-5.7,4.9-8.7,8.7c-5.2,6.4-6.5,13.1-7.5,17.3c-2.8,11.7-8.7,22.5-13,33.8c-4.5,11.8-3.8,8.7-16.5,39
				c-8.2,19.6-11.4,27.7-17.5,39.7c-12,23.5-11.2,14.6-16.2,24.7c-0.5,1-2,4.2-5.4,6c-0.6,0.3-5,2.7-9.1,0.8
				C1353.1,864.4,1349.6,862.7,1348.1,858.2z"/>
		</g>
		<g id="flowers10">
			<path class="st6" d="M1069.8,835.7c-18.4-9-19.4-16.2-19.5-18c-0.7-10.2,13.7-18.6,16.3-20.1c13.2-7.7,19.6-2.5,42.3-10
				c9.9-3.2,10.3-4.8,18.1-6.3c9.4-1.9,20.5-4.1,30.1,2.1c12.1,7.8,12.9,23.3,13,24.4c0.7,16.6-12.4,27.9-14.9,30.1
				C1126,863.1,1076.1,838.7,1069.8,835.7z"/>
			<path class="st7" d="M1097,813.8c-6.7,0.1-5.9-1.2-23.1-3.2c-12.6-1.5-17-1.2-21.5,0.4c-2,0.7-7.1,2.6-11.4,7.3
				c-1.7,1.9-3.6,4.6-6.9,15.8c-2.2,7.6-4.1,14.3-5.2,24.1c-1.2,11.2-1.8,16.8,0.3,19.7c4.1,5.9,12,4,33.7,7.3
				c9.4,1.4,14.6,2.3,21,4.2c5.6,1.7,23.9,7.5,37.9,23.4c10.2,11.6,8.2,17.4,19.1,25.2c3.1,2.2,15,10.7,23.1,6.1
				c6.6-3.8,6.9-14,6.9-14.6c0.1-6.9-3.6-9.8-6.3-17c-1.4-3.7-2.2-7.5-1.4-24.8c1.3-30.2,4.2-30.3,2-39.4
				c-3.2-13.6-11.8-22.7-16.2-26.6c-3.9-3.4-13.9-12.4-27.6-12.8C1111,808.6,1110.1,813.6,1097,813.8z"/>
			<path class="st7" d="M1137.6,816.2c-2-3-6.8-9.6-4.5-14.2c2.5-5,10.6-2.4,20.9-9.2c5.2-3.5,4.4-4.9,10.7-9.4
				c5.9-4.1,11.4-8,16.7-7.2c11.4,1.7,16.1,23.3,16.8,26.6c2.5,12.4,0.1,22.7-2.2,32.5c-1.6,7-3.7,12.4-7.7,22.7
				c-11.9,30.5-14.9,29.4-15.8,39.4c-1.5,17.2,7.3,25.4,1.2,33.7c-3.8,5.2-12.1,8.6-17.5,6.1c-8.7-4.1-2.8-20.6-6.5-58.9
				C1146.5,844.2,1144.9,827.1,1137.6,816.2z"/>
			<path class="st5" d="M1148.6,939.7c-1,10.5,7.1,17,13.3,27.2c3.1,5.1,5.1,10,9.6,44.3c6.9,51.8,3.1,45.6,7.6,68.9
				c2.3,11.8,7,32.9,5.6,49.2c-1.2,13.4-1.7,17.4-1.7,17.4c-1.5,10.4-3.2,15.7-2,16.2c1.7,0.8,9.6-9.2,10-13.4
				c3.2-32.6-0.6-47.1-7.6-86.8c-6.9-38.9-0.9-51.1-11.8-104.4c-4-19.4-7.9-33-13.4-33.3C1154.1,924.8,1149.3,932.5,1148.6,939.7z"
				/>
			<path class="st5" d="M1139.8,926.5c-3.5,3-5.3,8.8-3.4,13.1c2.1,4.7,7.9,5.7,14.5,6.9c3.1,0.5,7.1,1.2,11.8-0.4
				c0.5-0.2,3.8-1.3,6.9-4.1c8.1-7.2,10.9-22,6.5-25.2c-3.5-2.5-8.1,5.2-22.5,7.1C1146.7,924.7,1143.2,923.5,1139.8,926.5z"/>
		</g>
		<g id="flowers9">
			<path class="st6" d="M1247,977.5c0,0-12.5-4.1-59.1-14.6c-32.2-7.3-44.3,1.8-55.4-10.1c-5.7-6.2-8.9-15.5-7.3-23.8
				c3.8-19.1,32.6-27.4,42.2-30.1c13.5-3.8,13.8-0.8,24.7-4.9c17.8-6.6,19-15.4,36.9-23.8c6.7-3.1,25.9-12.1,34.7-4.7
				c2.6,2.1,4.6,6,1.7,38.2c-3.1,33.2-5.4,30.9-4.8,44.1c0.8,15.4,4.4,25.6-1.1,29.6C1255.8,980.4,1249.8,978.4,1247,977.5z"/>
			<path class="st6" d="M1249.9,970.1c-2.7-2.6-5.9-9.1,14.6-60c13.8-34.2,18.4-39.4,24.7-42.7c10.1-5.4,20.2-3.8,37.8-1
				c22.6,3.6,37.9,6,46.4,19c8.6,13.1,7,31.9-0.8,44.5c-2.1,3.4-5.3,7.3-50.5,25.7c-7.9,3.2-27,10.9-52.9,15
				C1255.6,972.9,1252.2,972.2,1249.9,970.1z"/>
			<path class="st7" d="M1251.9,960.5c-4.6,1.7-17.2,6.8-29.1,18.4c-5.6,5.5-11.6,11.3-10.2,16.5c0.5,1.8,2.8,6.8,31.1,10.2
				c12.9,1.5,25.9,3.4,43.7,1.5c3.7-0.4,15.3-3.3,38.3-9.2c12-3.1,19.7-5.2,26.2-12.1c2.7-2.9,7.2-7.8,6.7-13.2
				c-1.3-13.6-33.1-20.3-37.9-21.2C1291.2,945.5,1267.2,954.7,1251.9,960.5z"/>
			<path class="st7" d="M1245.1,975.6c-20.4-0.1-60.9-26-107.5-13.2c-10.1,2.8-20.6,5.8-26.4,15.1c-4.7,7.6-2.3,13-8.8,23.7
				c-6,9.9-11.4,10.7-11.2,15.7c0.3,7.9,14.3,15,25.8,17.4c13,2.8,25.2-0.5,49-7.3c18.7-5.3,18.8-7,30.1-8.7c18.1-2.7,22.2,1.2,30-4
				c8.2-5.5,4.8-10.5,18.6-26.1c3.2-3.7,7.6-8.1,6.3-10.7C1249.9,975.5,1246.1,975.6,1245.1,975.6z"/>
			<g>
				<path class="st8" d="M1242.1,963.2c-2,0.5-4.9,1.1-7.7,3.3c-2.4,1.8-6.3,5.9-5,8.5c1.7,3.5,11.7,2.4,15.9,1.5
					c3.3-0.6,8-1.6,11-5.3c0.8-0.9,3.2-4,2-6.3C1256.4,961.3,1247.1,962,1242.1,963.2z"/>
				<g>
					<path class="st9" d="M1242.9,971.1c-0.2-1.4-0.8-2.6-1.5-3.6c-0.7-1-1.5-1.9-2.4-2.7c-1.8-1.6-4-3.1-6.1-5
						c-2.1-2-3.9-4.3-5.3-6.8c-0.7-1.3-1.3-2.6-1.6-4c-0.4-1.4-0.5-3,0-4.4c0.6,1.4,1.3,2.4,2.1,3.4c0.8,1,1.7,2,2.6,2.9
						c1.8,1.9,3.6,3.7,5.5,5.5c1.9,1.7,4.1,3.6,5.8,6.2c0.8,1.3,1.5,2.8,1.7,4.3C1243.8,968.2,1243.7,969.8,1242.9,971.1z"/>
				</g>
				<g>
					<path class="st9" d="M1243.8,969.8c-0.9-2.3-1.6-4.4-2.4-6.4c-0.7-2.1-1.4-4-2.3-5.6c-0.4-0.8-1-1.7-1.6-2.7
						c-0.6-1-1.2-2.3-1.5-3.5c-0.6-2.5-0.4-5.2,0.8-7.3c0.7,2.3,1.6,4.3,2.6,6c0.5,0.9,1.1,1.6,1.7,2.4c0.7,0.8,1.4,1.8,2,3
						c1.3,2.3,1.7,4.8,1.8,7.2C1245.2,965.1,1244.8,967.5,1243.8,969.8z"/>
				</g>
				<g>
					<path class="st9" d="M1244.1,948.3c1,1.7,1.5,3.5,1.9,5.2c0.3,1.7,0.5,3.5,0.5,5.2c0,1.7-0.2,3.5-0.5,5.2
						c-0.4,1.7-0.9,3.5-1.9,5.2c-1-1.7-1.5-3.5-1.9-5.2c-0.3-1.7-0.5-3.5-0.5-5.2c0-1.7,0.2-3.5,0.5-5.2
						C1242.6,951.7,1243.1,950,1244.1,948.3z"/>
				</g>
			</g>
		</g>
		<g id="flowers8">
			<path class="st6" d="M1239.2,838c-3-2.9-0.7-9.7,2.7-19.7c2-5.8,7.2-20.2,20.9-28.8c4-2.5,7-4.3,10.3-3.4
				c7.3,1.9,11.4,15.5,9.4,25.5C1278.4,832.5,1245.9,844.5,1239.2,838z"/>
			<path class="st6" d="M1340.9,795.5c-3.8-5.5-11.2-16.2-8.8-29.3c0.4-2.2,2.6-13,11.8-19.3c11.4-7.8,19.7,0.6,34.2-6.1
				c12.6-5.9,10.6-14.2,21.5-17.5c6.7-2.1,10.9,0.1,35.9,8.8c19.1,6.6,28.6,9.9,32.6,10.4c22.4,2.9,34.7-6.2,39.8,0.2
				c4,5-0.3,14.7-3.6,21.8c-7.2,16.1-18.6,25.7-23.2,29.3c-22.3,17.9-43.8,35-75.3,34.2C1380.9,827.2,1354.7,815.5,1340.9,795.5z"/>
			<path class="st7" d="M1344.4,786.3c-7.7-2.9-12.6-8.5-12.3-13.6c0.5-7.3,12-10.9,14.8-11.8c14.6-4.6,20.1,4.2,36.9,2.6
				c13.5-1.3,12.7-7.3,30.7-10.5c9.9-1.8,23.6-4.3,31.5,3.5c6.1,6,5.8,15.1,5.7,20.6c-0.4,17.3-10.7,29.7-18.1,38.3
				c-10.4,12.2-20,23.5-32.7,25.2C1380.9,843.2,1356.6,821.5,1344.4,786.3z"/>
			<path class="st6" d="M1377.5,948.6c18.1-2.9,28.2-21.7,32.7-30.2c13.7-25.5,1.6-33.5,13.5-64.3c9.1-23.6,20.5-30.1,19.7-50.4
				c-0.2-5.2-0.7-16.5-8.6-24.1c-7.1-6.8-15.8-6.2-37-7.5c-19.6-1.2-29.4-1.8-40-3.9c-29.6-5.7-34.1-16.4-55-15
				c-6.5,0.5-21,1.5-29.4,12.3c-8.8,11.4-5.4,26.7-4.1,32.8c3.5,16.2,11.5,20,22,37.8c11,18.5,5.7,20.1,18.4,49.5
				c9.7,22.4,16.5,37.7,32.4,49.9C1349.6,941.3,1362.4,951.1,1377.5,948.6z"/>
			<path class="st7" d="M1237.6,833.2c0.1-3.2,6.8-6.7,20.1-13.6c12.2-6.3,16.1-6.9,21.9-12.3c6.6-6.2,6.1-9.8,10.5-14.5
				c10.1-10.6,32.9-12.8,45.5-4.8c17.1,10.8,5.5,34,17.1,79.3c11.9,46.7,36.9,71.7,28.1,80.4c-3.7,3.6-13.3,1.3-32.5-3.3
				c-18-4.3-27-6.5-33-12.2c-11.1-10.5-5.2-20-16.9-44.2c-3.4-7.1-8.9-18.4-19.7-28.6C1259,840.8,1237.2,840.6,1237.6,833.2z"/>
			<path class="st7" d="M1405.5,929.9c10.4,5.3,28.7-5.8,37.9-17.5c11.2-14.2,5.2-24.4,16.6-56.1c4.5-12.6,9.5-22.2,15.3-33.3
				c8.4-16.2,13.3-22.5,22.1-39.7c11-21.5,14.1-23.7,12.5-26.9c-4.1-7.9-25.1-4.4-58.7,1.3c-28.6,4.8-33,8.2-35.2,10.1
				c-12.6,11.1-11.3,28.4-11.7,58.2C1403.4,900.5,1393.3,923.6,1405.5,929.9z"/>
			<path class="st5" d="M1382.5,959.3c0.9,11.4,2.9,13.8,4,24.9c1,9.9,0.3,17.3-0.4,25.4c-1.2,12.8-3,18.6-7,37.2
				c-8.5,39.6-5.7,38.3-9.6,44.2c-7.9,11.8-18.3,15.6-23.2,31.4c-1.4,4.5-1.8,8.2,0,11.1c3.6,5.7,14.9,6.7,21.2,2.2
				c4.7-3.3,5.1-8.4,7.6-18.9c3.5-14.7,3.9-9.3,9.7-30.6c0.9-3.5,5.3-19.6,9.2-42c1.8-10.7,3.4-19.7,4.4-32
				c1.8-21.8-0.9-20.3,0.9-37.7c1.9-18.6,5.6-26,0.4-33.9c-3.4-5.1-9.8-9.4-13.5-7.7C1380.5,935.4,1381.7,949.7,1382.5,959.3z"/>
			<path class="st5" d="M1371.6,946.5c-0.7,6.3,4.1,11.7,4.9,12.6c4.8,5.3,12.8,8.3,20,6.1c8.8-2.6,11.9-11.6,14-17.5
				c1.6-4.5,5.1-14.5,0.9-18.8C1404,921.4,1373.2,931.7,1371.6,946.5z"/>
		</g>
		<g id="flowers7">
			<path class="st6" d="M1674.1,908.3c-4.2,0-7.2-6.4-11.8-16.1c-2.6-5.6-8.9-19.5-5-35.2c1.1-4.5,2.1-8,5.1-9.6
				c6.5-3.7,18.9,3.2,24.5,11.8C1698.5,877,1683.5,908.3,1674.1,908.3z"/>
			<path class="st6" d="M1717.6,807c-6.5-1.3-19.3-3.9-26.7-15c-1.3-1.9-7.1-11.1-4.9-22.1c2.8-13.5,14.5-13.2,20.3-28.2
				c5-13-2.2-17.6,3.2-27.5c3.4-6.1,7.9-7.5,31.9-18.7c18.3-8.5,27.4-12.8,30.6-15.2c18.1-13.5,20.6-28.6,28.7-27.5
				c6.4,0.8,10,10.8,12.6,18.2c6,16.6,4.5,31.4,3.7,37.2c-3.6,28.4-7.1,55.6-30.4,76.9C1768.4,802,1741.5,811.7,1717.6,807z"/>
			<path class="st7" d="M1713.8,797.9c-7.5,3.2-15,2.7-18.3-1.2c-4.7-5.6,1-16.2,2.4-18.8c7.3-13.5,17.4-10.9,28.3-23.8
				c8.8-10.3,4.1-14.1,14.7-28.9c5.8-8.1,14-19.5,25.1-19.4c8.5,0.1,14.7,6.8,18.4,10.8c11.7,12.7,12.9,28.8,13.7,40.1
				c1,16,2,30.8-6,40.8C1779.5,813.4,1747,814.7,1713.8,797.9z"/>
			<path class="st6" d="M1850.4,891.5c11-14.7,5.2-35.2,2.5-44.4c-7.9-27.8-22.1-25.1-35-55.6c-9.9-23.3-6.2-35.9-20.9-49.9
				c-3.8-3.6-12-11.4-22.9-11.3c-9.8,0.1-15.6,6.6-31.8,20.4c-15,12.8-22.4,19.2-31.4,25c-25.3,16.5-35.9,11.9-50,27.5
				c-4.4,4.9-14.1,15.7-12.6,29.2c1.6,14.3,14.7,22.9,19.9,26.4c13.8,9.2,22.2,6.4,42.1,11.8c20.8,5.7,18,10.5,47.6,22.8
				c22.5,9.4,38.1,15.6,58,13.3C1825.2,905.7,1841.3,903.8,1850.4,891.5z"/>
			<path class="st7" d="M1669.6,905.9c-2.1-2.4,0.3-9.5,5-23.8c4.4-13.1,6.8-16.1,7.2-24c0.4-9.1-2.5-11.3-2.5-17.7
				c-0.1-14.7,14.8-32.1,29.4-35.1c19.8-4.1,27.6,20.6,67.4,45.1c41.1,25.3,76.4,25.8,76.1,38.2c-0.1,5.2-8.6,10.2-25.7,20.2
				c-15.9,9.4-23.9,14.1-32.2,14.2c-15.3,0.1-17.7-10.8-42.9-20c-7.4-2.7-19.2-7-34-6.8C1690.3,896.5,1674.6,911.5,1669.6,905.9z"/>
			<path class="st7" d="M1857.6,858.6c11.2-3.4,16.5-24.1,15.1-38.9c-1.8-18-13.2-21.1-27-51.9c-5.5-12.2-8.6-22.6-12.1-34.6
				c-5.2-17.5-6.1-25.4-11.8-43.9c-7-23.1-6.3-26.9-9.7-28c-8.4-2.8-21.1,14.4-41.3,41.8c-17.2,23.4-18,28.8-18.3,31.7
				c-1.3,16.8,11.7,28.2,32.1,50C1835.6,838.9,1844.4,862.6,1857.6,858.6z"/>
			<path class="st5" d="M1861.5,895.7c8.6,7.6,11.7,7.9,20.2,15.2c7.6,6.4,12.2,12.2,17.4,18.6c8.1,10,10.8,15.4,20.9,31.6
				c21.4,34.4,22.6,31.4,23.8,38.5c2.5,13.9-2.3,23.9,5.2,38.7c2.1,4.2,4.4,7.2,7.7,8c6.5,1.6,15.3-5.5,16.8-13.1
				c1.1-5.6-2.2-9.6-7.7-18.9c-7.7-13-3.7-9.4-14.3-28.8c-1.7-3.1-9.8-17.8-22.6-36.6c-6.1-9-11.2-16.5-19.1-26
				c-13.9-16.9-14.8-14-25.6-27.7c-11.5-14.7-14.1-22.6-23.3-24.6c-6-1.3-13.5,0.1-15.1,3.9C1843.4,879.9,1854.2,889.4,1861.5,895.7
				z"/>
			<path class="st5" d="M1844.7,894.2c3.9,5,11.1,5.6,12.3,5.6c7.1,0.5,15-2.9,18.6-9.5c4.5-8,0.5-16.6-2.1-22.3
				c-2-4.4-6.4-14-12.5-14.1C1850.5,853.6,1835.6,882.4,1844.7,894.2z"/>
		</g>
		<g id="flowers6">
			<path class="st6" d="M1625.8,749c14.2-11.6,14.1-19.6,13.9-21.6c-0.8-11.2-13.8-19-16.2-20.4c-12-7.1-16.6-0.8-36.6-6.7
				c-8.6-2.6-9.2-4.2-15.9-5.1c-8.1-1.1-17.7-2.5-24.8,5.3c-9,9.8-7.8,26.7-7.7,27.9c1.6,18.2,14,29.2,16.4,31.4
				C1582.5,784.5,1621,753,1625.8,749z"/>
			<path class="st7" d="M1600.3,727.8c5.6-0.6,4.7-1.9,18.9-5.9c10.4-2.9,14-3,18-1.7c1.8,0.6,6.3,2.1,10.4,6.9
				c1.7,1.9,3.6,4.7,7.8,16.6c2.8,8.1,5.3,15.3,7.5,25.9c2.4,12.1,3.7,18.2,2.3,21.6c-2.7,6.8-9.5,5.5-27.2,11.3
				c-7.6,2.5-11.9,3.9-17,6.7c-4.4,2.5-18.9,10.5-28.5,29.3c-7,13.7-4.6,19.8-12.6,29.4c-2.3,2.7-11.1,13.2-18.5,9
				c-6-3.5-7.6-14.6-7.7-15.3c-1-7.5,1.7-11.1,3-19.3c0.7-4.1,0.8-8.4-2-27.2c-5-32.9-7.4-32.6-6.8-42.8
				c0.9-15.2,6.9-25.9,10.1-30.7c2.8-4.2,10-14.9,21.4-16.7C1588,723.5,1589.4,728.9,1600.3,727.8z"/>
			<path class="st7" d="M1566.7,734.5c1.3-3.5,4.4-11.2,1.9-16c-2.7-5.2-9.1-1.5-18.6-8c-4.8-3.3-4.3-4.9-10.2-9.2
				c-5.5-3.9-10.5-7.6-14.9-6.2c-9.3,3-10.4,27.1-10.5,30.7c-0.5,13.8,2.9,24.9,6.1,35.3c2.3,7.5,4.7,13.1,9.4,24.1
				c13.9,32.2,16.3,30.6,18.3,41.5c3.5,18.7-2.8,28.5,3.4,36.9c3.9,5.3,11.2,8.2,15.4,4.9c6.7-5.3-0.4-22.8-2.3-65
				C1563,766,1562.1,747.2,1566.7,734.5z"/>
			<path class="st5" d="M1573.7,870.5c2.2,11.4-3.7,19.3-7.6,31.1c-1.9,5.9-2.9,11.5-2.2,49.4c1,57.3,3.3,50.1,2.6,76.1
				c-0.4,13.2-1.6,36.7,1.7,54.3c2.7,14.5,3.7,18.9,3.7,18.9c2.6,11.2,4.7,16.9,3.8,17.5c-1.3,1-9.2-9.1-10.1-13.7
				c-6.9-35.3-5.7-51.6-5-95.6c0.7-43.2-5.9-55.9-3.8-115.2c0.8-21.6,2.3-36.9,6.8-37.7C1567.1,854.8,1572.2,862.7,1573.7,870.5z"/>
			<path class="st5" d="M1579.4,855.2c3.3,2.9,5.6,9.1,4.5,14c-1.2,5.4-5.8,7-11.2,9c-2.5,0.9-5.8,2-9.9,0.7
				c-0.4-0.1-3.4-1.1-6.3-3.7c-7.7-7-11.9-23-8.7-26.9c2.6-3.1,7.4,4.9,19.6,5.5C1573.4,854,1576.1,852.3,1579.4,855.2z"/>
		</g>
		<g id="flowers5">
			<path class="st10" d="M1694.7,990.6c0,0,38.3-5.7,31.5,6.1c-6.8,11.8-31.5,5.8-31.5,5.8V990.6z"/>
			<path class="st6" d="M1576.8,991.6c0,0,29.6-22.4,36.1-19.9c6.4,2.5,32.7,12,44.1,13.1s46.8,4.4,43.7,11
				c-3.1,6.6-10.2,12-10.2,12s-13.9,14-32.3,12.6C1644.5,1019.4,1576.8,991.6,1576.8,991.6z"/>
			<path class="st6" d="M1601.1,998c0,0,27.8-9.9,34-5.4c6.2,4.6,8.7,20.5,5.8,23.6C1638,1019.4,1601.1,998,1601.1,998z"/>
			<path class="st6" d="M1522.7,1028.4c-0.7,0.2-1.1-0.7-0.5-1.2c8.4-6.4,35.3-27.5,36.2-35.1c1.1-9.1,74.4,6.4,64.4,19.7
				c-9.9,13.3-17.8,13.6-15.1,35.3c0.3,2.4-36.8,0.8-59.3-2.1C1527.8,1042.4,1531,1026.5,1522.7,1028.4z"/>
			<path class="st7" d="M1604.3,1043c-0.5-1.1-1.9-5.5-4.9-8.1c-16.5-14.2-61.1,16.3-70.1-3.2c-8.5-18.5-53.7,9.4-49.8,17.7
				c0.7,1.6,5.9,1.9,8.7,2.2c18.6,1.7,29.6,21.3,56.6,59.1c35.2,49.2,42.5,59.5,61.9,68.5c6.9,3.2,37.4,0.3,44-0.4
				c0.6-0.1,1-0.8,0.7-1.3c-4.4-7.7-21.8-7.6-16.8-56c2.7-25.9-16.8-16.3-25.4-40.9C1605.1,1068.9,1608.4,1054.6,1604.3,1043z"/>
			<path class="st7" d="M1651,1179c0.6-0.1,1.2-0.4,1.5-1c1.9-2.7,8.3-11.6,10-14.5c1.9-3.3,31.7-39.2,31.1-49.1
				c-0.6-9.9,19.3-28.6,15.5-41.6c-3.7-13.1,6.6-62.1,17.4-71.5c13.8-12.1-27.4-3.7-34.2,3.7c-6.8,7.5-34.2,12.4-34.2,12.4
				s-27.4-9.9-35.4-5.6c-8.1,4.4-26.7,20.5-14.3,68.4c6.4,24.8,25.5,13.1,25.5,41.6C1633.9,1150,1629.7,1182.2,1651,1179z"/>
		</g>
		<g id="flowers4">
			<path class="st6" d="M946.3,1073c-1.1,0.9-6.8,3.4-18.2,8.3c-12.8,5.5-15.1,5.9-17.3,6c-8.9,0.5-16.2-4.8-22.4-10.1
				c-18.8-15.8-30.4-32.9-40.6-47c-10.9-15.1-21.5-20.7-27.9-36.1c-2.5-6-3.9-11.6-4.1-17.7c-0.1-1.6-0.4-15.2,6.1-25.1
				c7.1-10.7,16.4-8.4,54.8-20.7c22.4-7.2,33.7-10.8,40-15.8c7.4-5.9,12.8-12.9,20.9-12.2c6.4,0.6,10.8,5.7,14.1,9.6
				c4,4.7,10.6,14.3,12.4,32.5c1,10.3-0.4,14.9-4.1,39c-3.4,21.9-5.2,32.9-5.9,40.7C951.4,1054.6,955.1,1065.7,946.3,1073z"/>
			<path class="st7" d="M938.1,1097.8c11.1-4,11.3-16.3,23.3-35.2c14.7-23.2,22.3-17.4,32-36.2c7.8-15,1.1-15.2,10.8-54
				c3.7-14.5,6.7-22.6,2.1-28.4c-4.7-5.9-11.3-1.6-24-7.7c-6.9-3.3-6.6-5.4-25.2-21.1c-8.9-7.6-13.5-11.4-15.9-12
				c-2.9-0.7-13-2.3-40.7,22.8c-15.2,13.8-22.8,20.7-28.4,30c-25.6,43.1,1.5,114,40.4,136.3C917.8,1095.5,928.3,1101.3,938.1,1097.8
				z"/>
			<path class="st7" d="M945.5,1079.3c0.9,3.7,2.6,10.7-0.9,16.6c-4.5,7.6-15.2,9.2-18.6,9.7c-5.9,0.9-10.2,0.1-16.6-0.9
				c-25.5-4.2-22.5-2.5-30.2-4.5c-13.5-3.4-22.5-8.7-36.7-16.9c-20.6-12-17.6-14-31.1-20c-13.8-6.1-21.1-5.8-27.2-13.9
				c-3.4-4.5-7.6-13.2-4.4-19.6c3.7-7.5,13.6-3.6,24.2-12.8c7.6-6.6,10.5-15.5,11.9-20c3.9-12.4-0.3-15.7,3.1-23.1
				c5.9-12.9,25.7-17.9,39.7-17.2c3,0.2,16.3,1.1,35,15.2C924,994.7,931.5,1024.5,945.5,1079.3z"/>
			<path class="st5" d="M942.1,1104.6c-2.2,7.7-0.5,14.1,1.4,21.6c8.5,34.1,5.2,34.6,14.7,62.7c20.7,61,27.2,59.6,29.1,80.5
				c1.9,21.4,2.1,59.4-15.8,67.2c-9.1,4-22.3,0-24.4-6.3c-2.5-7.3,11.4-13.7,18.7-30.9c6.3-15,3.8-29.4,2.9-34.7
				c-0.7-4.5-1.9-8.9-9.9-27.2c-11-25.2-11.2-22.7-15.1-32.9c-5.4-14.2-11.8-31.3-11.3-52.8c0.2-8.3,1.4-14.1-1.3-22.8
				c-1.1-3.7-5-16.4-15.6-21c-5.1-2.2-8.7-1.3-9-2.8c-0.8-4.1,23.9-11.1,25.4-11.5c10.6-3,12.9-2.3,13.7-1.1
				C947.2,1094.7,943.9,1098.4,942.1,1104.6z"/>
			<path class="st5" d="M952.1,1072c3.8,2.5,1.4,12.7-2.8,19.5c-6,9.6-16.2,13.2-19.3,14.3c-2,0.7-10.5,3.5-20.9,1.7
				c-3.9-0.7-12.6-2.2-13.5-6.5c-0.8-3.8,4.8-8,8.6-10.7c9.7-7.1,15.1-6,31.9-12.9C946.4,1073,949.6,1070.4,952.1,1072z"/>
		</g>
		<g id="flowers3">
			<path class="st7" d="M1093.1,1188.3c-7.2-1.2-31.3-39.1-32.8-43.3c-4.8-13.3-4.3-19.7-11.9-36c-3.2-6.8-5.1-9.5-9.7-19.6
				c-5-11-4.6-11.9-10.1-24.8c-5.1-12.1-9.6-21.3-13.4-36c-1.8-7-2.3-10.7-0.2-13.2c3-3.5,9.5-2.6,20.5-0.8
				c15.2,2.4,16.5,5.2,24.5,4.2c4.1-0.5,8.3-1.7,16.1-4.1c8.1-2.5,8.7-3.2,11.7-3.2c5.2,0,8.5,2.2,17,7.1c1.3,0.7,10.5,6,16.1,8.7
				c17.7,8.6,24.5,4.3,29.4,10.9c3,4,0.7,5.9,0.3,26.1c-0.3,15.2,0.9,19.5-0.9,31.5c-1.4,9.8-3.2,14.1-5.8,17.6
				c-3.8,5.3-6.3,4.8-9.5,9.7c-4.8,7.2-2.1,12.4-4.5,21.8c-1.7,6.7-5.4,11.4-12.7,20.7c-7.3,9.3-9.1,13.3-13.5,16.8
				C1099,1186.1,1096.4,1188.9,1093.1,1188.3z"/>
			<path class="st7" d="M1113.2,1180.6c11.2-3.4,28.6-6.5,47.5-24.2c1.6-1.5-0.3,0.1,20.2-30.8c11.3-17.1,12.9-19.1,14.9-21.4
				c7.1-8.2,10.7-10.1,14.1-17.4c3.2-6.9,1.7-8.9,5.2-16.5c2.1-4.4,5.4-11.7,11.6-15.5c12.4-7.7,34.4-0.3,35.9,8.4
				c1.1,6.4-9.4,9.8-26.9,24.6c-12,10-23.8,24.6-47.4,53.8c-9.3,11.5-20,25.2-33.2,35.8c-8.5,6.8-8.8,5-18.9,13.1
				c-5.6,4.5-9.3,8.1-13.8,7.3c-3.9-0.7-6.3-4.3-7-5.3C1112.7,1188.2,1110.7,1181.3,1113.2,1180.6z"/>
			<path class="st6" d="M1151.9,1039.2c2.8-3.5,6.8-4.7,11.8-6.2c7.5-2.2,13.6-1.6,20.8-0.8c7.6,0.8,11.4,1.3,15.9,3.9
				c5.2,3,4.7,5.2,9.8,7.7c5.2,2.6,10.4,2.6,15.3,2.6c7.6,0,11.7-1.6,14.4,1.2c0.1,0.2,1.9,2,1.3,3.6c-1.1,2.8-8.4-0.5-14.9,2.6
				c-10.5,4.9-13.4,23.8-13.8,26.1c-0.3,2.1-0.5,4.3-1.8,7.4c-2,4.7-4.9,7.2-8.5,10.8c-3.6,3.7-6.7,7.8-10.2,11.6
				c-12,13-18.3,31.3-30,45.2c-18.5,21.8-48.1,29.8-51.3,25.5c-1.6-2.1,2.2-7.9,6.3-14.2c6-9.3,8.5-8.5,11.1-14.4
				c3.9-9-1.2-12.7,3.4-22.3c1.7-3.6,4.1-6.6,6.9-9.9c4.6-5.7,6.4-6.3,8.6-9.6c2.7-4,3.3-7.9,3.7-17.8c0.5-12,0.8-17.9,0.2-28.3
				C1149.8,1048.1,1148.4,1043.7,1151.9,1039.2z"/>
			<path class="st7" d="M1017.2,1012.9c-1-2.8,5.3-8.2,11.6-11c8.1-3.6,11.8-0.9,22.3-2.5c11.9-1.8,12.3-6.1,24.6-8.9
				c9.1-2.1,16-1.5,25.8-0.6c18.7,1.7,16.9,5.9,37.9,8.8c11.1,1.6,18.9,1.4,22.2,7c2.3,4,0.5,7.7,4,11c3.5,3.3,7.2,1.3,11.2,5
				c3,2.8,4.9,7.4,3.4,9.4c-1,1.3-2.9,0.6-8.5,0.6c-6.6,0-10.7,0-14.3,2.4c-3.4,2.3-3,4.6-5.6,5.1c-3.3,0.7-5-2.8-10.5-5.5
				c-4.8-2.3-6-0.9-12.6-2.6c-4-1-7.9-3.2-15.8-7.5c-5.5-3-7.6-4.5-15.3-8.6c-4.2-2.3-6.4-3.4-7.3-3.6c-4.7-1.1-8,0.4-19.4,4.3
				c-6.9,2.3-10.3,3.5-11.2,3.6c-7.8,1.1-10.7-1.9-21.3-3.8C1025,1013,1018.2,1015.7,1017.2,1012.9z"/>
			<path class="st6" d="M1096.2,988.1c0.8-1.9,4.6-2.4,18.8-1.2c12.8,1.1,19.9,1.7,32.9,4.2c13.7,2.6,20.8,4,29.5,7.6
				c6.8,2.9,11.1,4.6,16.2,8.5c7.1,5.3,9.3,9.7,18,14.2c1.9,1,4.2,1.9,8.8,3.6c12.7,4.8,14.5,4.3,22.3,7.6
				c7.6,3.2,13.3,5.7,17.6,11.7c3.2,4.5,3.9,8.6,4,10.7c0.2,3.3-0.2,8.6-2.2,9.1c-2.6,0.6-3.9-8.5-11.2-11c-4.9-1.7-9.5,0.7-11-1.7
				c-1.2-1.9,1.1-4.2,0-5.7c-1.4-1.8-5.5,0.5-12.5,1c-2.6,0.2-7.1,0.4-12-1.3c-2.8-1-2.9-1.7-11.4-6.9c-4.1-2.5-6.1-3.7-7.2-4.2
				c-6.2-2.6-9.7-1.3-15.6-2.4c-2-0.4-5-1.1-14.2-6.5c-15.1-8.9-14.6-11.3-25.1-17.2c-12-6.7-18.2-10.1-26.7-9.7
				c-3.5,0.2-7.5,1-12-1.3C1099,995.2,1095.2,990.6,1096.2,988.1z"/>
		</g>
		<g id="flowers2">
			<path class="st6" d="M1336.4,702.3c0,0-4.4-4.9-21.9-20.2c-12.1-10.5-19.9-6.6-21.5-16.5c-0.8-5.1,0.3-11.9,3.2-17.2
				c6.8-12.1,21.6-12.5,26.5-12.6c6.9-0.2,6.2,1.9,12.1,1.1c9.5-1.3,12.4-6.9,22.5-9.4c3.8-0.9,14.6-3.5,16.4,3
				c0.5,1.9,0.4,4.8-9.6,25.8c-10.3,21.6-10.7,19.7-14,28.6c-3.8,10.4-5,17.8-8.4,19.6C1339.4,705.7,1337.3,703.4,1336.4,702.3z"/>
			<path class="st6" d="M1339.6,697.8c-0.5-2.2-0.1-7.1,22.5-37.5c15.2-20.4,18.7-23,22.3-24.1c5.9-1.8,9.8,1,16.8,6
				c8.9,6.4,14.9,10.7,15.2,20.9c0.2,10.2-5.5,22.6-12.4,29.6c-1.8,1.9-4.3,3.9-29,8.3c-4.3,0.8-14.7,2.5-27.2,0.7
				C1341.4,700.7,1340.1,699.6,1339.6,697.8z"/>
			<path class="st7" d="M1343.1,691.8c-2.5,0.4-9.4,1.5-17.7,7.2c-3.9,2.7-8.1,5.5-8.9,9.2c-0.3,1.3-0.6,5.1,10.8,12.3
				c5.2,3.3,10.4,6.8,18.7,8.7c1.7,0.4,7.6,0.5,19.2,0.6c6.1,0.1,10,0,14.7-3.5c2-1.5,5.3-3.9,6.5-7.6c3.1-9.3-9-19.4-10.8-20.8
				C1364.3,688.7,1351.4,690.6,1343.1,691.8z"/>
			<path class="st7" d="M1336,700.6c-8.9-3.7-19.6-28.1-43.4-27.8c-5.1,0.1-10.6,0.3-15.6,5.4c-4.1,4.2-4.5,8.3-10.2,14.3
				c-5.3,5.5-7.9,5.2-9.1,8.5c-2,5.3,2.2,12.5,6.6,16.2c4.9,4.1,11.1,4.1,23.4,3.8c9.6-0.2,10.1-1.4,15.5-0.5
				c8.6,1.4,9.4,4.7,14.2,2.6c5.1-2.2,4.9-6.2,15.1-14.1c2.4-1.9,5.5-4.1,5.6-6C1338.2,701.5,1336.5,700.8,1336,700.6z"/>
		</g>
		<g id="flowers1">
			<path class="st6" d="M1523.6,919.3c0,0-5.6,2.3-25.2,12.3c-13.5,6.9-15.5,13.4-22.7,12.7c-3.7-0.4-7.3-2.5-8.9-5.7
				c-3.7-7.4,4.6-18.4,7.3-22.1c3.9-5.2,4.8-4.2,7.7-8.7c4.7-7.3,2.8-10.5,7.1-18.5c1.6-2.9,6.2-11.5,11.3-11.6
				c1.5,0,3.2,0.6,10.6,12.1c7.6,11.8,6.2,11.7,9.9,15.9c4.3,4.8,8.3,7.1,7.4,10C1527.6,917.7,1524.9,918.8,1523.6,919.3z"/>
			<path class="st6" d="M1522.7,916c-1.7-0.1-4.5-1.3-10.5-23.9c-4-15.2-3.7-18.3-2.3-21.2c2.3-4.7,6.3-7.1,13.4-11.2
				c9.1-5.4,15.3-9,21.8-7.2c6.5,1.8,10.9,8.5,11.4,14.9c0.1,1.7,0,3.9-11.5,23c-2,3.3-6.9,11.4-15.1,20.2
				C1525.5,915.3,1524.1,916,1522.7,916z"/>
			<path class="st7" d="M1520.9,912.3c-1.2,1.9-4.4,7.2-5.7,14.5c-0.6,3.4-1.2,7.1,0.7,8.4c0.7,0.4,2.8,1.4,13.9-5.6
				c5.1-3.2,10.2-6.4,16.2-12.1c1.2-1.2,4.6-5.5,11.4-14.1c3.5-4.5,5.8-7.4,6.3-11.6c0.2-1.7,0.6-4.6-1-6.3c-4-4.1-17.3,2.9-19.3,4
				C1531.2,896,1524.9,905.9,1520.9,912.3z"/>
			<path class="st7" d="M1522.4,919.2c-7.4,5.9-28.8,9-42.3,26.7c-2.9,3.8-5.9,7.9-5.6,12.6c0.3,3.8,2.6,5,3,10.3
				c0.4,5-1.3,6.8,0.1,8.4c2.2,2.5,9.1,0.8,13.9-1.7c5.4-2.8,8.9-7.4,15.8-16.5c5.4-7.1,4.9-7.8,8.6-11.6c5.8-6.1,8.3-6,9.8-10
				c1.5-4.2-1-4.8-0.1-13.9c0.2-2.1,0.6-4.8-0.5-5.3C1524.2,917.8,1522.8,918.9,1522.4,919.2z"/>
		</g>
	</g>
</g>
</svg>
